<?xml version="1.0" encoding="UTF-8" standalone="no"?>
<!-- Created with Inkscape (http://www.inkscape.org/) -->

<svg
   width="210mm"
   height="297mm"
   viewBox="0 0 210 297"
   version="1.1"
   id="svg5"
   sodipodi:docname="Networks.svg"
   inkscape:version="1.2.2 (b0a8486541, 2022-12-01)"
   xmlns:inkscape="http://www.inkscape.org/namespaces/inkscape"
   xmlns:sodipodi="http://sodipodi.sourceforge.net/DTD/sodipodi-0.dtd"
   xmlns="http://www.w3.org/2000/svg"
   xmlns:svg="http://www.w3.org/2000/svg">
  <sodipodi:namedview
     id="namedview7"
     pagecolor="#ffffff"
     bordercolor="#666666"
     borderopacity="1.0"
     inkscape:showpageshadow="2"
     inkscape:pageopacity="0.0"
     inkscape:pagecheckerboard="0"
     inkscape:deskcolor="#d1d1d1"
     inkscape:document-units="mm"
     showgrid="false"
     inkscape:zoom="1"
     inkscape:cx="104.5"
     inkscape:cy="639"
     inkscape:window-width="1920"
     inkscape:window-height="1011"
     inkscape:window-x="0"
     inkscape:window-y="0"
     inkscape:window-maximized="1"
     inkscape:current-layer="layer1" />
  <defs
     id="defs2">
    <inkscape:path-effect
       effect="lattice2"
       gridpoint0="56.689547,38.120031"
       gridpoint1="89.532559,38.120031"
       gridpoint2="56.689547,90.526693"
       gridpoint3="89.532559,90.526693"
       gridpoint4="64.9003,38.120031"
       gridpoint5="81.321806,38.120031"
       gridpoint6="64.9003,90.526693"
       gridpoint7="81.321806,90.526693"
       gridpoint8x9="73.111053,38.120031"
       gridpoint10x11="73.111053,90.526693"
       gridpoint12="56.689547,51.221697"
       gridpoint13="89.532559,51.221697"
       gridpoint14="56.689547,77.425028"
       gridpoint15="89.532559,77.425028"
       gridpoint16="64.9003,51.221697"
       gridpoint17="81.321806,51.221697"
       gridpoint18="64.9003,77.425028"
       gridpoint19="81.321806,77.425028"
       gridpoint20x21="73.111053,51.221697"
       gridpoint22x23="73.111053,77.425028"
       gridpoint24x26="56.689547,64.323362"
       gridpoint25x27="89.532559,64.323362"
       gridpoint28x30="64.9003,64.323362"
       gridpoint29x31="81.321806,64.323362"
       gridpoint32x33x34x35="73.111053,64.323362"
       id="path-effect11839"
       is_visible="true"
       lpeversion="1"
       horizontal_mirror="false"
       vertical_mirror="false"
       perimetral="false"
       live_update="true" />
    <inkscape:path-effect
       effect="rough_hatches"
       id="path-effect11837"
       is_visible="true"
       lpeversion="1.2"
       direction="73.111053,59.323362 , 8.210753,0"
       dist_rdm="75;1"
       growth="0"
       do_bend="true"
       bender="73.111053,64.323362 , 5,0"
       bottom_edge_variation="5.2406662;1"
       top_edge_variation="5.2406662;1"
       bottom_tgt_variation="0;1"
       top_tgt_variation="0;1"
       scale_bf="1"
       scale_bb="1"
       scale_tf="1"
       scale_tb="1"
       top_smth_variation="0;1"
       bottom_smth_variation="0;1"
       fat_output="true"
       stroke_width_top="1"
       stroke_width_bottom="1"
       front_thickness="1"
       back_thickness="0.25" />
    <inkscape:path-effect
       effect="envelope"
       id="path-effect11803"
       is_visible="true"
       lpeversion="1"
       yy="true"
       xx="true"
       bendpath1="M 56.689547,38.120031 H 89.532559"
       bendpath2="M 89.532559,38.120031 V 90.526693"
       bendpath3="M 56.689547,90.526693 H 89.532559"
       bendpath4="M 56.689547,38.120031 V 90.526693" />
    <inkscape:path-effect
       effect="simplify"
       id="path-effect3251"
       is_visible="true"
       lpeversion="1"
       steps="1"
       threshold="0.0277778"
       smooth_angles="360"
       helper_size="0"
       simplify_individual_paths="false"
       simplify_just_coalesce="false" />
    <inkscape:path-effect
       effect="powerstroke"
       id="path-effect3247"
       is_visible="true"
       lpeversion="1"
       offset_points="2,4.9921382"
       not_jump="false"
       sort_points="true"
       interpolator_type="CubicBezierJohan"
       interpolator_beta="0.2"
       start_linecap_type="zerowidth"
       linejoin_type="extrp_arc"
       miter_limit="4"
       scale_width="1"
       end_linecap_type="zerowidth" />
    <inkscape:path-effect
       effect="simplify"
       id="path-effect3245"
       is_visible="true"
       lpeversion="1"
       steps="1"
       threshold="0.0277778"
       smooth_angles="360"
       helper_size="0"
       simplify_individual_paths="false"
       simplify_just_coalesce="false" />
    <inkscape:path-effect
       effect="simplify"
       id="path-effect3241"
       is_visible="true"
       lpeversion="1"
       steps="1"
       threshold="0.0277778"
       smooth_angles="360"
       helper_size="0"
       simplify_individual_paths="false"
       simplify_just_coalesce="false" />
  </defs>
  <g
     inkscape:label="Layer 1"
     inkscape:groupmode="layer"
     id="layer1">
    <rect
       style="fill:#b8ebe8;fill-opacity:1;stroke:#000000;stroke-width:0.25;stroke-dasharray:none;stroke-opacity:1"
       id="rect234"
       width="3.3625927"
       height="25.981878"
       x="11.024175"
       y="52.883507"
       inkscape:export-filename="ActionNet.png"
       inkscape:export-xdpi="179.294"
       inkscape:export-ydpi="179.294" />
    <rect
       style="fill:#b8ebe8;fill-opacity:1;stroke:#000000;stroke-width:0.25;stroke-dasharray:none;stroke-opacity:1"
       id="rect234-3"
       width="3.3625927"
       height="25.981878"
       x="50.604511"
       y="52.889053"
       inkscape:export-filename="ActionNet.png"
       inkscape:export-xdpi="179.294"
       inkscape:export-ydpi="179.294" />
    <rect
       style="fill:#b8ebe8;fill-opacity:1;stroke:#000000;stroke-width:0.25;stroke-dasharray:none;stroke-opacity:1"
       id="rect234-6"
       width="4.166544"
       height="40.086952"
       x="100.57643"
       y="45.327477" />
    <rect
       style="fill:#b8ebe8;fill-opacity:1;stroke:#000000;stroke-width:0.25;stroke-dasharray:none;stroke-opacity:1"
       id="rect234-6-7"
       width="4.1643257"
       height="4.4563432"
       x="140.56248"
       y="62.710129" />
    <path
       style="fill:#f4cc26;fill-opacity:1;stroke:#000000;stroke-width:0.286871;stroke-linecap:butt;stroke-linejoin:miter;stroke-dasharray:none;stroke-opacity:1"
       d="m 56.689547,46.988641 v 34.033792 l 32.843012,9.50426 -0.03878,-52.406662 z"
       id="path3287"
       sodipodi:nodetypes="ccccc"
       class="UnoptimicedTransforms"
       transform="matrix(1.0005317,0,0,0.75906066,4.1217694,16.016814)" />
    <path
       style="fill:#f4cc26;fill-opacity:1;stroke:#000000;stroke-width:0.25;stroke-linecap:butt;stroke-linejoin:miter;stroke-dasharray:none;stroke-opacity:1"
       d="m 133.70664,62.322404 v 4.732754 L 111.7142,85.090069 111.59955,45.310233 Z"
       id="path3287-3"
       sodipodi:nodetypes="ccccc" />
    <text
       xml:space="preserve"
       style="font-style:normal;font-variant:normal;font-weight:bold;font-stretch:normal;font-size:4.23333px;line-height:1.25;font-family:Xarrovv;-inkscape-font-specification:'Xarrovv Bold';text-align:center;letter-spacing:0px;word-spacing:0px;text-anchor:middle;stroke-width:0.264583"
       x="12.488907"
       y="47.726891"
       id="text11037"><tspan
         sodipodi:role="line"
         id="tspan11035"
         style="font-style:normal;font-variant:normal;font-weight:normal;font-stretch:normal;font-size:4.23333px;font-family:Xarrovv;-inkscape-font-specification:'Xarrovv Bold';text-align:center;text-anchor:middle;stroke-width:0.264583"
         x="12.488907"
         y="47.726891">Current state</tspan><tspan
         sodipodi:role="line"
         style="font-style:normal;font-variant:normal;font-weight:bold;font-stretch:normal;font-size:4.23333px;font-family:Xarrovv;-inkscape-font-specification:'Xarrovv Bold';text-align:center;text-anchor:middle;stroke-width:0.264583"
         x="12.488907"
         y="53.018551"
         id="tspan11799" /></text>
    <text
       xml:space="preserve"
       style="font-style:normal;font-variant:normal;font-weight:bold;font-stretch:normal;font-size:4.23333px;line-height:1.25;font-family:Xarrovv;-inkscape-font-specification:'Xarrovv Bold';text-align:center;letter-spacing:0px;word-spacing:0px;text-anchor:middle;stroke-width:0.264583"
       x="103.30679"
       y="40.907005"
       id="text11793"><tspan
         sodipodi:role="line"
         id="tspan11791"
         style="font-style:normal;font-variant:normal;font-weight:bold;font-stretch:normal;font-size:4.23333px;font-family:Xarrovv;-inkscape-font-specification:'Xarrovv Bold';text-align:center;text-anchor:middle;stroke-width:0.264583"
         x="103.30679"
         y="40.907005">Latent_pi</tspan></text>
    <text
       xml:space="preserve"
       style="font-style:normal;font-variant:normal;font-weight:bold;font-stretch:normal;font-size:4.23333px;line-height:1.25;font-family:Xarrovv;-inkscape-font-specification:'Xarrovv Bold';text-align:center;letter-spacing:0px;word-spacing:0px;text-anchor:middle;stroke-width:0.264583"
       x="143.32762"
       y="57.873051"
       id="text11797"><tspan
         sodipodi:role="line"
         id="tspan11795"
         style="font-style:normal;font-variant:normal;font-weight:bold;font-stretch:normal;font-size:4.23333px;font-family:Xarrovv;-inkscape-font-specification:'Xarrovv Bold';text-align:center;text-anchor:middle;stroke-width:0.264583"
         x="143.32762"
         y="57.873051">Next action</tspan></text>
    <text
       xml:space="preserve"
       style="font-style:normal;font-variant:normal;font-weight:bold;font-stretch:normal;font-size:4.23333px;line-height:1.25;font-family:Xarrovv;-inkscape-font-specification:'Xarrovv Bold';text-align:center;letter-spacing:0px;word-spacing:0px;text-anchor:middle;stroke-width:0.264583"
       x="78.290665"
       y="100.82117"
       id="text11879"><tspan
         sodipodi:role="line"
         id="tspan11877"
         style="font-style:normal;font-variant:normal;font-weight:bold;font-stretch:normal;font-size:4.23333px;font-family:Xarrovv;-inkscape-font-specification:'Xarrovv Bold';text-align:center;text-anchor:middle;stroke-width:0.264583"
         x="78.290665"
         y="100.82117">MLP network</tspan><tspan
         sodipodi:role="line"
         style="font-style:normal;font-variant:normal;font-weight:bold;font-stretch:normal;font-size:4.23333px;font-family:Xarrovv;-inkscape-font-specification:'Xarrovv Bold';text-align:center;text-anchor:middle;stroke-width:0.264583"
         x="78.290665"
         y="106.11283"
         id="tspan11891">configurable </tspan><tspan
         sodipodi:role="line"
         style="font-style:normal;font-variant:normal;font-weight:bold;font-stretch:normal;font-size:4.23333px;font-family:Xarrovv;-inkscape-font-specification:'Xarrovv Bold';text-align:center;text-anchor:middle;stroke-width:0.264583"
         x="78.290665"
         y="111.4045"
         id="tspan11893">with `net_arch`</tspan></text>
    <text
       xml:space="preserve"
       style="font-style:normal;font-variant:normal;font-weight:bold;font-stretch:normal;font-size:4.23333px;line-height:1.25;font-family:Xarrovv;-inkscape-font-specification:'Xarrovv Bold';text-align:center;letter-spacing:0px;word-spacing:0px;text-anchor:middle;stroke-width:0.264583"
       x="123.95947"
       y="101.6845"
       id="text11883"><tspan
         sodipodi:role="line"
         style="font-style:normal;font-variant:normal;font-weight:bold;font-stretch:normal;font-size:4.23333px;font-family:Xarrovv;-inkscape-font-specification:'Xarrovv Bold';text-align:center;text-anchor:middle;stroke-width:0.264583"
         x="123.95947"
         y="101.6845"
         id="tspan11885">Linear layer</tspan><tspan
         sodipodi:role="line"
         style="font-style:normal;font-variant:normal;font-weight:bold;font-stretch:normal;font-size:4.23333px;font-family:Xarrovv;-inkscape-font-specification:'Xarrovv Bold';text-align:center;text-anchor:middle;stroke-width:0.264583"
         x="123.95947"
         y="106.97617"
         id="tspan11889">automatically added</tspan></text>
    <path
       style="fill:none;stroke:#000000;stroke-width:0.264583px;stroke-linecap:butt;stroke-linejoin:miter;stroke-opacity:1"
       d="m 63.910192,88.705709 c 0.251979,0.35399 0.540237,0.96103 0.997755,1.19728 0.392038,0.20244 0.86615,0.34941 1.29709,0.44899 0.208881,0.0483 0.419473,0.0909 0.631915,0.11972 0.192821,0.0261 0.388088,0.029 0.582025,0.0449 0.232887,0.0191 0.465797,0.038 0.698437,0.0599 0.505735,0.0476 0.348742,0.0516 0.881351,0.0748 0.468413,0.0204 0.705403,0.015 1.180679,0.015 0.282699,0 0.565399,0 0.848098,0 0.327044,0 0.654106,-0.003 0.981131,0 0.149741,0.002 0.299296,0.0111 0.448995,0.015 2.334051,0.0609 -0.645541,-0.0237 1.230566,0.0299 0.0051,1.4e-4 0.892824,0.025 0.947878,0.0299 0.133982,0.0121 0.265681,0.0427 0.399105,0.0599 1.124067,0.14452 0.09012,-0.008 0.814838,0.10476 0.06646,0.0103 0.134096,0.0144 0.199546,0.0299 0.09001,0.0213 0.193606,0.0858 0.266073,0.13469 0.09534,0.0644 0.140912,0.10835 0.216186,0.19456 0.02932,0.0336 0.05951,0.067 0.08314,0.10476 0.07372,0.11796 0.108508,0.25947 0.149669,0.38913 0.01736,0.0546 0.03744,0.108637 0.04988,0.164607 0.0029,0.0129 0.01199,0.15628 0.03326,0.19456 0.0072,0.013 0.01833,0.0299 0.03326,0.0299 0.01,0 0,-0.0199 0,-0.0299 0,-0.025 0,-0.0499 0,-0.0748 0,-0.0848 0,-0.16961 0,-0.254417 0,-0.12322 -0.0037,-0.16529 0.01662,-0.29932 0.0076,-0.0505 0.01633,-0.10144 0.03325,-0.14966 0.02082,-0.0594 0.08297,-0.17533 0.133043,-0.22449 0.03497,-0.0343 0.0755,-0.0628 0.116406,-0.0898 0.08876,-0.0586 0.217607,-0.11841 0.315953,-0.14965 0.125984,-0.04 0.255362,-0.0685 0.382479,-0.10477 0.100168,-0.0286 0.198826,-0.0624 0.299325,-0.0898 0.0093,-0.003 0.410327,-0.0995 0.448993,-0.10477 0.06741,-0.009 0.514114,-0.0449 0.615278,-0.0449 0.105439,0 0.210613,0.0107 0.315965,0.015 0.138549,0.006 0.277083,0.0127 0.415729,0.015 0.688478,0.0115 0.335026,-0.0191 1.130801,0.0149 0.393102,0.0169 0.395546,0.0362 0.781571,0.0748 0.458787,0.0459 0.769771,0.0482 1.280459,0.0599 0.05978,10e-4 0.713438,-0.001 0.781582,0 0.133103,0.003 0.266035,0.011 0.399105,0.015 0.219228,0.006 0.7014,0.0126 0.964504,0.0299 0.111067,0.007 0.221795,0.0192 0.332579,0.0299 0.300373,0.0292 0.431773,0.0513 0.764958,0.0748 0.121745,0.009 0.24389,0.0101 0.365842,0.015 0.48234,0.0193 0.264369,0.0149 0.715057,0.0149 0.09978,0 0.199753,0.006 0.299337,0 0.139107,-0.009 0.277735,-0.0253 0.415732,-0.0449 0.157416,-0.0224 0.294296,-0.0688 0.448992,-0.10477 0.446109,-0.10361 0.156689,-0.0124 0.698431,-0.17959 0.0563,-0.0174 0.116568,-0.0283 0.166296,-0.0599 0.04698,-0.0298 0.0798,-0.0778 0.116404,-0.11973 0.05501,-0.063 0.08666,-0.125 0.133032,-0.19455 0.06021,-0.0903 0.117309,-0.18292 0.18292,-0.26939 0.08975,-0.11827 0.191069,-0.22739 0.282699,-0.34421 0.04384,-0.0559 0.245724,-0.3525 0.266076,-0.38913 0.01778,-0.032 0.01836,-0.0713 0.03325,-0.10475 0.0076,-0.017 0.02061,-0.0312 0.03326,-0.0449 0.01521,-0.0164 0.04312,-0.0236 0.04989,-0.0449 0.03069,-0.0967 -0.146058,-0.0857 -0.166293,-0.0898"
       id="path11905" />
    <text
       xml:space="preserve"
       style="font-style:normal;font-variant:normal;font-weight:bold;font-stretch:normal;font-size:4.23333px;line-height:1.25;font-family:Xarrovv;-inkscape-font-specification:'Xarrovv Bold';text-align:center;letter-spacing:0px;word-spacing:0px;text-anchor:middle;stroke-width:0.264583"
       x="34.081802"
       y="100.59967"
       id="text11879-5"><tspan
         sodipodi:role="line"
         id="tspan11877-3"
         style="font-style:normal;font-variant:normal;font-weight:bold;font-stretch:normal;font-size:4.23333px;font-family:Xarrovv;-inkscape-font-specification:'Xarrovv Bold';text-align:center;text-anchor:middle;stroke-width:0.264583"
         x="34.081802"
         y="100.59967">Feature extractor.</tspan><tspan
         sodipodi:role="line"
         style="font-style:normal;font-variant:normal;font-weight:bold;font-stretch:normal;font-size:4.23333px;font-family:Xarrovv;-inkscape-font-specification:'Xarrovv Bold';text-align:center;text-anchor:middle;stroke-width:0.264583"
         x="34.081802"
         y="105.89133"
         id="tspan747">Doesn't do anything</tspan><tspan
         sodipodi:role="line"
         style="font-style:normal;font-variant:normal;font-weight:bold;font-stretch:normal;font-size:4.23333px;font-family:Xarrovv;-inkscape-font-specification:'Xarrovv Bold';text-align:center;text-anchor:middle;stroke-width:0.264583"
         x="34.081802"
         y="111.183"
         id="tspan751">(just concatenates data)</tspan></text>
    <path
       style="fill:none;stroke:#000000;stroke-width:0.264583px;stroke-linecap:butt;stroke-linejoin:miter;stroke-opacity:1"
       d="m 19.461983,88.705709 c 0.251979,0.35399 0.540237,0.96103 0.997755,1.19728 0.392038,0.20244 0.86615,0.34941 1.29709,0.44899 0.208881,0.0483 0.419473,0.0909 0.631915,0.11972 0.192821,0.0261 0.388088,0.029 0.582025,0.0449 0.232887,0.0191 0.465797,0.038 0.698437,0.0599 0.505735,0.0476 0.348742,0.0516 0.881351,0.0748 0.468413,0.0204 0.705403,0.015 1.180679,0.015 0.282699,0 0.565399,0 0.848098,0 0.327044,0 0.654106,-0.003 0.981131,0 0.149741,0.002 0.299296,0.0111 0.448995,0.015 2.334051,0.0609 -0.645541,-0.0237 1.230566,0.0299 0.0051,1.4e-4 0.892824,0.025 0.947878,0.0299 0.133982,0.0121 0.265681,0.0427 0.399105,0.0599 1.124067,0.14452 0.09012,-0.008 0.814838,0.10476 0.06646,0.0103 0.134096,0.0144 0.199546,0.0299 0.09001,0.0213 0.193606,0.0858 0.266073,0.13469 0.09534,0.0644 0.140912,0.10835 0.216186,0.19456 0.02932,0.0336 0.05951,0.067 0.08314,0.10476 0.07372,0.11796 0.108508,0.25947 0.149669,0.38913 0.01736,0.0546 0.03744,0.108637 0.04988,0.164607 0.0029,0.0129 0.01199,0.15628 0.03326,0.19456 0.0072,0.013 0.01833,0.0299 0.03326,0.0299 0.01,0 0,-0.0199 0,-0.0299 0,-0.025 0,-0.0499 0,-0.0748 0,-0.0848 0,-0.16961 0,-0.254417 0,-0.12322 -0.0037,-0.16529 0.01662,-0.29932 0.0076,-0.0505 0.01633,-0.10144 0.03325,-0.14966 0.02082,-0.0594 0.08297,-0.17533 0.133043,-0.22449 0.03497,-0.0343 0.0755,-0.0628 0.116406,-0.0898 0.08876,-0.0586 0.217607,-0.11841 0.315953,-0.14965 0.125984,-0.04 0.255362,-0.0685 0.382479,-0.10477 0.100168,-0.0286 0.198826,-0.0624 0.299325,-0.0898 0.0093,-0.003 0.410327,-0.0995 0.448993,-0.10477 0.06741,-0.009 0.514114,-0.0449 0.615278,-0.0449 0.105439,0 0.210613,0.0107 0.315965,0.015 0.138549,0.006 0.277083,0.0127 0.415729,0.015 0.688478,0.0115 0.335026,-0.0191 1.130801,0.0149 0.393102,0.0169 0.395546,0.0362 0.781571,0.0748 0.458787,0.0459 0.769771,0.0482 1.280459,0.0599 0.05978,10e-4 0.713438,-0.001 0.781582,0 0.133103,0.003 0.266035,0.011 0.399105,0.015 0.219228,0.006 0.7014,0.0126 0.964504,0.0299 0.111067,0.007 0.221795,0.0192 0.332579,0.0299 0.300373,0.0292 0.431773,0.0513 0.764958,0.0748 0.121745,0.009 0.24389,0.0101 0.365842,0.015 0.48234,0.0193 0.264369,0.0149 0.715057,0.0149 0.09978,0 0.199753,0.006 0.299337,0 0.139107,-0.009 0.277735,-0.0253 0.415732,-0.0449 0.157416,-0.0224 0.294296,-0.0688 0.448992,-0.10477 0.446109,-0.10361 0.156689,-0.0124 0.698431,-0.17959 0.0563,-0.0174 0.116568,-0.0283 0.166296,-0.0599 0.04698,-0.0298 0.0798,-0.0778 0.116404,-0.11973 0.05501,-0.063 0.08666,-0.125 0.133032,-0.19455 0.06021,-0.0903 0.117309,-0.18292 0.18292,-0.26939 0.08975,-0.11827 0.191069,-0.22739 0.282699,-0.34421 0.04384,-0.0559 0.245724,-0.3525 0.266076,-0.38913 0.01778,-0.032 0.01836,-0.0713 0.03325,-0.10475 0.0076,-0.017 0.02061,-0.0312 0.03326,-0.0449 0.01521,-0.0164 0.04312,-0.0236 0.04989,-0.0449 0.03069,-0.0967 -0.146058,-0.0857 -0.166293,-0.0898"
       id="path11905-2" />
    <path
       style="fill:none;stroke:#000000;stroke-width:0.264583px;stroke-linecap:butt;stroke-linejoin:miter;stroke-opacity:1"
       d="m 111.74429,88.705709 c 0.25198,0.35399 0.54023,0.96103 0.99775,1.19728 0.39204,0.20244 0.86615,0.349406 1.29709,0.448986 0.20888,0.0483 0.41948,0.0909 0.63192,0.11973 0.19282,0.0261 0.38809,0.029 0.58202,0.0449 0.23289,0.0191 0.4658,0.038 0.69844,0.0599 0.50573,0.0476 0.34874,0.0516 0.88135,0.0748 0.46841,0.0204 0.7054,0.015 1.18068,0.015 0.2827,0 0.5654,0 0.8481,0 0.32704,0 0.6541,-0.003 0.98113,0 0.14974,0.002 0.29929,0.0111 0.44899,0.015 2.33405,0.0609 -0.64554,-0.0237 1.23057,0.0299 0.005,1.4e-4 0.89282,0.025 0.94788,0.0299 0.13398,0.0121 0.26568,0.0427 0.3991,0.0599 1.12407,0.14452 0.0901,-0.008 0.81484,0.10476 0.0665,0.0103 0.1341,0.0144 0.19955,0.0299 0.09,0.0213 0.1936,0.0858 0.26607,0.13469 0.0953,0.0644 0.14091,0.10835 0.21619,0.194561 0.0293,0.0336 0.0595,0.067 0.0831,0.10476 0.0737,0.11796 0.1085,0.25947 0.14966,0.38913 0.0174,0.0546 0.0374,0.10863 0.0499,0.1646 0.003,0.0129 0.012,0.15628 0.0333,0.19456 0.007,0.013 0.0183,0.0299 0.0333,0.0299 0.01,0 0,-0.0199 0,-0.0299 0,-0.025 0,-0.0499 0,-0.0748 0,-0.0848 0,-0.16961 0,-0.25441 0,-0.12322 -0.004,-0.16529 0.0166,-0.29932 0.008,-0.0505 0.0163,-0.10144 0.0332,-0.14966 0.0208,-0.0594 0.083,-0.175331 0.13305,-0.224491 0.035,-0.0343 0.0755,-0.0628 0.1164,-0.0898 0.0888,-0.0586 0.21761,-0.11841 0.31596,-0.14965 0.12598,-0.04 0.25536,-0.0685 0.38248,-0.10477 0.10016,-0.0286 0.19882,-0.0624 0.29932,-0.0898 0.009,-0.003 0.41033,-0.0995 0.44899,-0.10477 0.0674,-0.009 0.51412,-0.0449 0.61528,-0.0449 0.10544,0 0.21061,0.0107 0.31597,0.015 0.13855,0.006 0.27708,0.0127 0.41573,0.015 0.68847,0.0115 0.33502,-0.0191 1.1308,0.0149 0.3931,0.0169 0.39554,0.0362 0.78157,0.0748 0.45878,0.0459 0.76977,0.0482 1.28046,0.0599 0.0598,10e-4 0.71343,-0.001 0.78158,0 0.1331,0.003 0.26603,0.011 0.3991,0.015 0.21923,0.006 0.7014,0.0126 0.96451,0.0299 0.11106,0.007 0.22179,0.0192 0.33258,0.0299 0.30037,0.0292 0.43177,0.0513 0.76495,0.0748 0.12175,0.009 0.24389,0.0101 0.36585,0.015 0.48234,0.0193 0.26436,0.0149 0.71505,0.0149 0.0998,0 0.19976,0.006 0.29934,0 0.13911,-0.009 0.27773,-0.0253 0.41573,-0.0449 0.15742,-0.0224 0.2943,-0.0688 0.44899,-0.10477 0.44611,-0.10362 0.15669,-0.0124 0.69844,-0.1796 0.0563,-0.0174 0.11656,-0.0283 0.16629,-0.0599 0.047,-0.0298 0.0798,-0.0778 0.11641,-0.11973 0.055,-0.063 0.0867,-0.125 0.13303,-0.194551 0.0602,-0.0903 0.11731,-0.18292 0.18292,-0.26939 0.0897,-0.11827 0.19107,-0.22739 0.2827,-0.34421 0.0438,-0.0559 0.24572,-0.3525 0.26607,-0.38913 0.0178,-0.032 0.0184,-0.0713 0.0333,-0.10475 0.008,-0.017 0.0206,-0.0312 0.0333,-0.0449 0.0152,-0.0164 0.0431,-0.0236 0.0499,-0.0449 0.0307,-0.0967 -0.14606,-0.0857 -0.16629,-0.0898"
       id="path11905-7" />
    <text
       xml:space="preserve"
       style="font-size:5.64444px;line-height:1.25;font-family:Xarrovv;-inkscape-font-specification:Xarrovv;letter-spacing:0px;word-spacing:0px;stroke-width:0.264583"
       x="72.551064"
       y="30.256716"
       id="text12025"><tspan
         sodipodi:role="line"
         id="tspan12023"
         style="text-align:center;text-anchor:middle;stroke-width:0.264583"
         x="72.551064"
         y="30.256716">The Action Network</tspan></text>
    <text
       xml:space="preserve"
       style="font-size:5.64444px;line-height:1.25;font-family:Xarrovv;-inkscape-font-specification:Xarrovv;letter-spacing:0px;word-spacing:0px;stroke-width:0.264583"
       x="69.041557"
       y="140.304"
       id="text12025-0"
       inkscape:export-filename="ValueNet.png"
       inkscape:export-xdpi="179.294"
       inkscape:export-ydpi="179.294"><tspan
         sodipodi:role="line"
         id="tspan12023-8"
         style="text-align:center;text-anchor:middle;stroke-width:0.264583"
         x="69.041557"
         y="140.304">The Value Network</tspan></text>
    <rect
       style="fill:#f4cc26;stroke:#000000;stroke-width:0.263826"
       id="rect499"
       width="22.492229"
       height="25.734734"
       x="21.249523"
       y="52.703209" />
    <text
       xml:space="preserve"
       style="font-size:4.23333px;line-height:1.25;font-family:Xarrovv;-inkscape-font-specification:Xarrovv;letter-spacing:0px;word-spacing:0px;stroke-width:0.264583"
       x="45.551338"
       y="47.811123"
       id="text582"><tspan
         sodipodi:role="line"
         id="tspan580"
         style="font-size:4.23333px;stroke-width:0.264583"
         x="45.551338"
         y="47.811123">Features</tspan></text>
    <rect
       style="fill:#b8ebe8;fill-opacity:1;stroke:#000000;stroke-width:0.25;stroke-dasharray:none;stroke-opacity:1"
       id="rect234-9"
       width="3.3625927"
       height="25.981878"
       x="12.176699"
       y="162.83896"
       inkscape:export-filename="ActionNet.png"
       inkscape:export-xdpi="179.294"
       inkscape:export-ydpi="179.294" />
    <rect
       style="fill:#b8ebe8;fill-opacity:1;stroke:#000000;stroke-width:0.25;stroke-dasharray:none;stroke-opacity:1"
       id="rect234-3-1"
       width="3.3625927"
       height="25.981878"
       x="51.757038"
       y="162.8445"
       inkscape:export-filename="ActionNet.png"
       inkscape:export-xdpi="179.294"
       inkscape:export-ydpi="179.294" />
    <rect
       style="fill:#b8ebe8;fill-opacity:1;stroke:#000000;stroke-width:0.25;stroke-dasharray:none;stroke-opacity:1"
       id="rect234-6-2"
       width="4.166544"
       height="40.086952"
       x="101.72895"
       y="155.28293" />
    <rect
       style="fill:#b8ebe8;fill-opacity:1;stroke:#000000;stroke-width:0.25;stroke-dasharray:none;stroke-opacity:1"
       id="rect234-6-7-7"
       width="4.1643257"
       height="4.4563432"
       x="141.715"
       y="172.66559" />
    <path
       style="fill:#f4cc26;fill-opacity:1;stroke:#000000;stroke-width:0.286871;stroke-linecap:butt;stroke-linejoin:miter;stroke-dasharray:none;stroke-opacity:1"
       d="m 56.689547,46.988641 v 34.033792 l 32.843012,9.50426 -0.03878,-52.406662 z"
       id="path3287-0"
       sodipodi:nodetypes="ccccc"
       class="UnoptimicedTransforms"
       transform="matrix(1.0005317,0,0,0.75906066,5.2742931,125.97227)" />
    <path
       style="fill:#f4cc26;fill-opacity:1;stroke:#000000;stroke-width:0.25;stroke-linecap:butt;stroke-linejoin:miter;stroke-dasharray:none;stroke-opacity:1"
       d="m 134.85917,172.27786 v 4.73275 l -21.99244,18.03491 -0.11465,-39.77983 z"
       id="path3287-3-9"
       sodipodi:nodetypes="ccccc" />
    <text
       xml:space="preserve"
       style="font-style:normal;font-variant:normal;font-weight:bold;font-stretch:normal;font-size:4.23333px;line-height:1.25;font-family:Xarrovv;-inkscape-font-specification:'Xarrovv Bold';text-align:center;letter-spacing:0px;word-spacing:0px;text-anchor:middle;stroke-width:0.264583"
       x="13.641433"
       y="157.68233"
       id="text11037-3"><tspan
         sodipodi:role="line"
         id="tspan11035-6"
         style="font-style:normal;font-variant:normal;font-weight:normal;font-stretch:normal;font-size:4.23333px;font-family:Xarrovv;-inkscape-font-specification:'Xarrovv Bold';text-align:center;text-anchor:middle;stroke-width:0.264583"
         x="13.641433"
         y="157.68233">Current state</tspan><tspan
         sodipodi:role="line"
         style="font-style:normal;font-variant:normal;font-weight:bold;font-stretch:normal;font-size:4.23333px;font-family:Xarrovv;-inkscape-font-specification:'Xarrovv Bold';text-align:center;text-anchor:middle;stroke-width:0.264583"
         x="13.641433"
         y="162.97398"
         id="tspan11799-0" /></text>
    <text
       xml:space="preserve"
       style="font-style:normal;font-variant:normal;font-weight:bold;font-stretch:normal;font-size:4.23333px;line-height:1.25;font-family:Xarrovv;-inkscape-font-specification:'Xarrovv Bold';text-align:center;letter-spacing:0px;word-spacing:0px;text-anchor:middle;stroke-width:0.264583"
       x="104.45931"
       y="150.86246"
       id="text11793-6"><tspan
         sodipodi:role="line"
         id="tspan11791-2"
         style="font-style:normal;font-variant:normal;font-weight:bold;font-stretch:normal;font-size:4.23333px;font-family:Xarrovv;-inkscape-font-specification:'Xarrovv Bold';text-align:center;text-anchor:middle;stroke-width:0.264583"
         x="104.45931"
         y="150.86246">Latent_vf</tspan></text>
    <text
       xml:space="preserve"
       style="font-style:normal;font-variant:normal;font-weight:bold;font-stretch:normal;font-size:4.23333px;line-height:1.25;font-family:Xarrovv;-inkscape-font-specification:'Xarrovv Bold';text-align:center;letter-spacing:0px;word-spacing:0px;text-anchor:middle;stroke-width:0.264583"
       x="145.18748"
       y="163.5925"
       id="text11797-6"><tspan
         sodipodi:role="line"
         id="tspan11795-1"
         style="font-style:normal;font-variant:normal;font-weight:bold;font-stretch:normal;font-size:4.23333px;font-family:Xarrovv;-inkscape-font-specification:'Xarrovv Bold';text-align:center;text-anchor:middle;stroke-width:0.264583"
         x="145.18748"
         y="163.5925">Value of </tspan><tspan
         sodipodi:role="line"
         style="font-style:normal;font-variant:normal;font-weight:bold;font-stretch:normal;font-size:4.23333px;font-family:Xarrovv;-inkscape-font-specification:'Xarrovv Bold';text-align:center;text-anchor:middle;stroke-width:0.264583"
         x="145.18748"
         y="168.88416"
         id="tspan1164">current state</tspan></text>
    <text
       xml:space="preserve"
       style="font-style:normal;font-variant:normal;font-weight:bold;font-stretch:normal;font-size:4.23333px;line-height:1.25;font-family:Xarrovv;-inkscape-font-specification:'Xarrovv Bold';text-align:center;letter-spacing:0px;word-spacing:0px;text-anchor:middle;stroke-width:0.264583"
       x="79.443184"
       y="210.77663"
       id="text11879-8"><tspan
         sodipodi:role="line"
         id="tspan11877-7"
         style="font-style:normal;font-variant:normal;font-weight:bold;font-stretch:normal;font-size:4.23333px;font-family:Xarrovv;-inkscape-font-specification:'Xarrovv Bold';text-align:center;text-anchor:middle;stroke-width:0.264583"
         x="79.443184"
         y="210.77663">MLP network</tspan><tspan
         sodipodi:role="line"
         style="font-style:normal;font-variant:normal;font-weight:bold;font-stretch:normal;font-size:4.23333px;font-family:Xarrovv;-inkscape-font-specification:'Xarrovv Bold';text-align:center;text-anchor:middle;stroke-width:0.264583"
         x="79.443184"
         y="216.06828"
         id="tspan11891-9">configurable </tspan><tspan
         sodipodi:role="line"
         style="font-style:normal;font-variant:normal;font-weight:bold;font-stretch:normal;font-size:4.23333px;font-family:Xarrovv;-inkscape-font-specification:'Xarrovv Bold';text-align:center;text-anchor:middle;stroke-width:0.264583"
         x="79.443184"
         y="221.35995"
         id="tspan11893-2">with `net_arch`</tspan></text>
    <text
       xml:space="preserve"
       style="font-style:normal;font-variant:normal;font-weight:bold;font-stretch:normal;font-size:4.23333px;line-height:1.25;font-family:Xarrovv;-inkscape-font-specification:'Xarrovv Bold';text-align:center;letter-spacing:0px;word-spacing:0px;text-anchor:middle;stroke-width:0.264583"
       x="125.11198"
       y="211.63995"
       id="text11883-0"><tspan
         sodipodi:role="line"
         style="font-style:normal;font-variant:normal;font-weight:bold;font-stretch:normal;font-size:4.23333px;font-family:Xarrovv;-inkscape-font-specification:'Xarrovv Bold';text-align:center;text-anchor:middle;stroke-width:0.264583"
         x="125.11198"
         y="211.63995"
         id="tspan11885-2">Linear layer</tspan><tspan
         sodipodi:role="line"
         style="font-style:normal;font-variant:normal;font-weight:bold;font-stretch:normal;font-size:4.23333px;font-family:Xarrovv;-inkscape-font-specification:'Xarrovv Bold';text-align:center;text-anchor:middle;stroke-width:0.264583"
         x="125.11198"
         y="216.93161"
         id="tspan11889-3">automatically added</tspan></text>
    <path
       style="fill:none;stroke:#000000;stroke-width:0.264583px;stroke-linecap:butt;stroke-linejoin:miter;stroke-opacity:1"
       d="m 65.062716,198.66117 c 0.251979,0.35398 0.540237,0.96103 0.997755,1.19727 0.392038,0.20245 0.86615,0.34942 1.29709,0.44899 0.208881,0.0483 0.419473,0.0909 0.631915,0.11972 0.192821,0.0261 0.388088,0.029 0.582025,0.0449 0.232887,0.0191 0.465797,0.038 0.698437,0.0599 0.505735,0.0476 0.348742,0.0516 0.881351,0.0748 0.468413,0.0204 0.705403,0.015 1.180679,0.015 0.282699,0 0.565399,0 0.848098,0 0.327044,0 0.654106,-0.003 0.981131,0 0.149741,0.002 0.299296,0.0111 0.448995,0.015 2.334051,0.0609 -0.645541,-0.0237 1.230566,0.0299 0.0051,1.5e-4 0.892824,0.025 0.947878,0.0299 0.133982,0.0121 0.265681,0.0427 0.399105,0.0599 1.124067,0.14452 0.09012,-0.008 0.814838,0.10476 0.06646,0.0103 0.134096,0.0144 0.199546,0.0299 0.09001,0.0213 0.193606,0.0858 0.266073,0.13469 0.09534,0.0644 0.140912,0.10835 0.216186,0.19456 0.02932,0.0336 0.05951,0.067 0.08314,0.10476 0.07372,0.11796 0.108508,0.25947 0.149669,0.38913 0.01736,0.0546 0.03744,0.10864 0.04988,0.16461 0.0029,0.0129 0.01199,0.15628 0.03326,0.19456 0.0072,0.013 0.01833,0.0299 0.03326,0.0299 0.01,0 0,-0.0199 0,-0.0299 0,-0.025 0,-0.0499 0,-0.0748 0,-0.0848 0,-0.16961 0,-0.25442 0,-0.12322 -0.0037,-0.16529 0.01662,-0.29932 0.0076,-0.0505 0.01633,-0.10144 0.03325,-0.14966 0.02082,-0.0594 0.08297,-0.17533 0.133043,-0.22449 0.03497,-0.0343 0.0755,-0.0628 0.116406,-0.0898 0.08876,-0.0586 0.217607,-0.11841 0.315953,-0.14964 0.125984,-0.04 0.255362,-0.0685 0.382479,-0.10478 0.100168,-0.0286 0.198826,-0.0624 0.299325,-0.0898 0.0093,-0.003 0.410327,-0.0995 0.448993,-0.10478 0.06741,-0.009 0.514114,-0.0449 0.615278,-0.0449 0.105439,0 0.210613,0.0107 0.315965,0.015 0.138549,0.006 0.277083,0.0127 0.415729,0.015 0.688478,0.0115 0.335026,-0.0191 1.130801,0.0149 0.393102,0.0169 0.395546,0.0362 0.781571,0.0748 0.458787,0.0459 0.769771,0.0482 1.280459,0.0599 0.05978,0.001 0.713438,-0.001 0.781582,0 0.133103,0.003 0.266035,0.011 0.399105,0.015 0.219228,0.006 0.7014,0.0126 0.964504,0.0299 0.111067,0.007 0.221795,0.0192 0.332579,0.0299 0.300373,0.0292 0.431773,0.0513 0.764958,0.0748 0.121745,0.009 0.24389,0.0101 0.365842,0.015 0.48234,0.0193 0.264369,0.0149 0.715057,0.0149 0.09978,0 0.199753,0.006 0.299337,0 0.139107,-0.009 0.277735,-0.0253 0.415732,-0.0449 0.157416,-0.0224 0.294296,-0.0688 0.448992,-0.10477 0.446109,-0.10361 0.156689,-0.0124 0.698431,-0.17959 0.0563,-0.0174 0.116568,-0.0283 0.166296,-0.0599 0.04698,-0.0298 0.0798,-0.0778 0.116404,-0.11973 0.05501,-0.063 0.08666,-0.125 0.133032,-0.19455 0.06021,-0.0903 0.117309,-0.18292 0.18292,-0.26939 0.08975,-0.11827 0.191069,-0.22739 0.282699,-0.34421 0.04384,-0.0559 0.245724,-0.3525 0.266076,-0.38913 0.01778,-0.032 0.01836,-0.0713 0.03325,-0.10475 0.0076,-0.017 0.02061,-0.0312 0.03326,-0.0449 0.01521,-0.0164 0.04312,-0.0236 0.04989,-0.0449 0.03069,-0.0967 -0.146058,-0.0857 -0.166293,-0.0898"
       id="path11905-75" />
    <text
       xml:space="preserve"
       style="font-style:normal;font-variant:normal;font-weight:bold;font-stretch:normal;font-size:4.23333px;line-height:1.25;font-family:Xarrovv;-inkscape-font-specification:'Xarrovv Bold';text-align:center;letter-spacing:0px;word-spacing:0px;text-anchor:middle;stroke-width:0.264583"
       x="35.234325"
       y="210.55513"
       id="text11879-5-9"><tspan
         sodipodi:role="line"
         id="tspan11877-3-2"
         style="font-style:normal;font-variant:normal;font-weight:bold;font-stretch:normal;font-size:4.23333px;font-family:Xarrovv;-inkscape-font-specification:'Xarrovv Bold';text-align:center;text-anchor:middle;stroke-width:0.264583"
         x="35.234325"
         y="210.55513">Feature extractor.</tspan><tspan
         sodipodi:role="line"
         style="font-style:normal;font-variant:normal;font-weight:bold;font-stretch:normal;font-size:4.23333px;font-family:Xarrovv;-inkscape-font-specification:'Xarrovv Bold';text-align:center;text-anchor:middle;stroke-width:0.264583"
         x="35.234325"
         y="215.84679"
         id="tspan747-2">Doesn't do anything</tspan><tspan
         sodipodi:role="line"
         style="font-style:normal;font-variant:normal;font-weight:bold;font-stretch:normal;font-size:4.23333px;font-family:Xarrovv;-inkscape-font-specification:'Xarrovv Bold';text-align:center;text-anchor:middle;stroke-width:0.264583"
         x="35.234325"
         y="221.13846"
         id="tspan751-8">(just concatenates data)</tspan></text>
    <path
       style="fill:none;stroke:#000000;stroke-width:0.264583px;stroke-linecap:butt;stroke-linejoin:miter;stroke-opacity:1"
       d="m 20.614507,198.66117 c 0.251979,0.35398 0.540237,0.96103 0.997755,1.19727 0.392038,0.20245 0.86615,0.34942 1.29709,0.44899 0.208881,0.0483 0.419473,0.0909 0.631915,0.11972 0.192821,0.0261 0.388088,0.029 0.582025,0.0449 0.232887,0.0191 0.465797,0.038 0.698437,0.0599 0.505735,0.0476 0.348742,0.0516 0.881351,0.0748 0.468413,0.0204 0.705403,0.015 1.180679,0.015 0.282699,0 0.565399,0 0.848098,0 0.327044,0 0.654106,-0.003 0.981131,0 0.149741,0.002 0.299296,0.0111 0.448995,0.015 2.334051,0.0609 -0.645541,-0.0237 1.230566,0.0299 0.0051,1.5e-4 0.892824,0.025 0.947878,0.0299 0.133982,0.0121 0.265681,0.0427 0.399105,0.0599 1.124067,0.14452 0.09012,-0.008 0.814838,0.10476 0.06646,0.0103 0.134096,0.0144 0.199546,0.0299 0.09001,0.0213 0.193606,0.0858 0.266073,0.13469 0.09534,0.0644 0.140912,0.10835 0.216186,0.19456 0.02932,0.0336 0.05951,0.067 0.08314,0.10476 0.07372,0.11796 0.108508,0.25947 0.149669,0.38913 0.01736,0.0546 0.03744,0.10864 0.04988,0.16461 0.0029,0.0129 0.01199,0.15628 0.03326,0.19456 0.0072,0.013 0.01833,0.0299 0.03326,0.0299 0.01,0 0,-0.0199 0,-0.0299 0,-0.025 0,-0.0499 0,-0.0748 0,-0.0848 0,-0.16961 0,-0.25442 0,-0.12322 -0.0037,-0.16529 0.01662,-0.29932 0.0076,-0.0505 0.01633,-0.10144 0.03325,-0.14966 0.02082,-0.0594 0.08297,-0.17533 0.133043,-0.22449 0.03497,-0.0343 0.0755,-0.0628 0.116406,-0.0898 0.08876,-0.0586 0.217607,-0.11841 0.315953,-0.14964 0.125984,-0.04 0.255362,-0.0685 0.382479,-0.10478 0.100168,-0.0286 0.198826,-0.0624 0.299325,-0.0898 0.0093,-0.003 0.410327,-0.0995 0.448993,-0.10478 0.06741,-0.009 0.514114,-0.0449 0.615278,-0.0449 0.105439,0 0.210613,0.0107 0.315965,0.015 0.138549,0.006 0.277083,0.0127 0.415729,0.015 0.688478,0.0115 0.335026,-0.0191 1.130801,0.0149 0.393102,0.0169 0.395546,0.0362 0.781571,0.0748 0.458787,0.0459 0.769771,0.0482 1.280459,0.0599 0.05978,0.001 0.713438,-0.001 0.781582,0 0.133103,0.003 0.266035,0.011 0.399105,0.015 0.219228,0.006 0.7014,0.0126 0.964504,0.0299 0.111067,0.007 0.221795,0.0192 0.332579,0.0299 0.300373,0.0292 0.431773,0.0513 0.764958,0.0748 0.121745,0.009 0.24389,0.0101 0.365842,0.015 0.48234,0.0193 0.264369,0.0149 0.715057,0.0149 0.09978,0 0.199753,0.006 0.299337,0 0.139107,-0.009 0.277735,-0.0253 0.415732,-0.0449 0.157416,-0.0224 0.294296,-0.0688 0.448992,-0.10477 0.446109,-0.10361 0.156689,-0.0124 0.698431,-0.17959 0.0563,-0.0174 0.116568,-0.0283 0.166296,-0.0599 0.04698,-0.0298 0.0798,-0.0778 0.116404,-0.11973 0.05501,-0.063 0.08666,-0.125 0.133032,-0.19455 0.06021,-0.0903 0.117309,-0.18292 0.18292,-0.26939 0.08975,-0.11827 0.191069,-0.22739 0.282699,-0.34421 0.04384,-0.0559 0.245724,-0.3525 0.266076,-0.38913 0.01778,-0.032 0.01836,-0.0713 0.03325,-0.10475 0.0076,-0.017 0.02061,-0.0312 0.03326,-0.0449 0.01521,-0.0164 0.04312,-0.0236 0.04989,-0.0449 0.03069,-0.0967 -0.146058,-0.0857 -0.166293,-0.0898"
       id="path11905-2-9" />
    <path
       style="fill:none;stroke:#000000;stroke-width:0.264583px;stroke-linecap:butt;stroke-linejoin:miter;stroke-opacity:1"
       d="m 112.89682,198.66117 c 0.25198,0.35398 0.54023,0.96103 0.99775,1.19727 0.39204,0.20245 0.86615,0.34941 1.29709,0.44899 0.20888,0.0483 0.41948,0.0909 0.63192,0.11973 0.19282,0.0261 0.38809,0.029 0.58202,0.0449 0.23289,0.0191 0.4658,0.038 0.69844,0.0599 0.50573,0.0476 0.34874,0.0516 0.88135,0.0748 0.46841,0.0204 0.7054,0.015 1.18068,0.015 0.2827,0 0.5654,0 0.8481,0 0.32704,0 0.6541,-0.003 0.98113,0 0.14974,0.002 0.29929,0.0111 0.44899,0.015 2.33405,0.0609 -0.64554,-0.0237 1.23057,0.0299 0.005,1.4e-4 0.89282,0.025 0.94788,0.0299 0.13398,0.0121 0.26568,0.0427 0.3991,0.0599 1.12407,0.14452 0.0901,-0.008 0.81484,0.10476 0.0665,0.0103 0.1341,0.0144 0.19955,0.0299 0.09,0.0213 0.1936,0.0858 0.26607,0.13469 0.0953,0.0644 0.14091,0.10835 0.21619,0.19456 0.0293,0.0336 0.0595,0.067 0.0831,0.10476 0.0737,0.11796 0.1085,0.25947 0.14966,0.38913 0.0174,0.0546 0.0374,0.10863 0.0499,0.1646 0.003,0.0129 0.012,0.15628 0.0333,0.19456 0.007,0.013 0.0183,0.0299 0.0333,0.0299 0.01,0 0,-0.0199 0,-0.0299 0,-0.025 0,-0.0499 0,-0.0748 0,-0.0848 0,-0.16961 0,-0.25441 0,-0.12322 -0.004,-0.16529 0.0166,-0.29932 0.008,-0.0505 0.0163,-0.10144 0.0332,-0.14966 0.0208,-0.0594 0.083,-0.17533 0.13305,-0.22449 0.035,-0.0343 0.0755,-0.0628 0.1164,-0.0898 0.0888,-0.0586 0.21761,-0.11841 0.31596,-0.14965 0.12598,-0.04 0.25536,-0.0685 0.38248,-0.10477 0.10016,-0.0286 0.19882,-0.0624 0.29932,-0.0898 0.009,-0.003 0.41033,-0.0995 0.44899,-0.10477 0.0674,-0.009 0.51412,-0.0449 0.61528,-0.0449 0.10544,0 0.21061,0.0107 0.31597,0.015 0.13855,0.006 0.27708,0.0127 0.41573,0.015 0.68847,0.0115 0.33502,-0.0191 1.1308,0.0149 0.3931,0.0169 0.39554,0.0362 0.78157,0.0748 0.45878,0.0459 0.76977,0.0482 1.28046,0.0599 0.0598,0.001 0.71343,-0.001 0.78158,0 0.1331,0.003 0.26603,0.011 0.3991,0.015 0.21923,0.006 0.7014,0.0126 0.96451,0.0299 0.11106,0.007 0.22179,0.0192 0.33258,0.0299 0.30037,0.0292 0.43177,0.0513 0.76495,0.0748 0.12175,0.009 0.24389,0.0101 0.36585,0.015 0.48234,0.0193 0.26436,0.0149 0.71505,0.0149 0.0998,0 0.19976,0.006 0.29934,0 0.13911,-0.009 0.27773,-0.0253 0.41573,-0.0449 0.15742,-0.0224 0.2943,-0.0688 0.44899,-0.10477 0.44611,-0.10362 0.15669,-0.0124 0.69844,-0.1796 0.0563,-0.0174 0.11656,-0.0283 0.16629,-0.0599 0.047,-0.0298 0.0798,-0.0778 0.11641,-0.11973 0.055,-0.063 0.0867,-0.125 0.13303,-0.19455 0.0602,-0.0903 0.11731,-0.18292 0.18292,-0.26939 0.0897,-0.11827 0.19107,-0.22739 0.2827,-0.34421 0.0438,-0.0559 0.24572,-0.3525 0.26607,-0.38913 0.0178,-0.032 0.0184,-0.0713 0.0333,-0.10475 0.008,-0.017 0.0206,-0.0312 0.0333,-0.0449 0.0152,-0.0164 0.0431,-0.0236 0.0499,-0.0449 0.0307,-0.0967 -0.14606,-0.0857 -0.16629,-0.0898"
       id="path11905-7-7" />
    <rect
       style="fill:#f4cc26;stroke:#000000;stroke-width:0.263826"
       id="rect499-3"
       width="22.492229"
       height="25.734734"
       x="22.402048"
       y="162.65866" />
    <text
       xml:space="preserve"
       style="font-size:4.23333px;line-height:1.25;font-family:Xarrovv;-inkscape-font-specification:Xarrovv;letter-spacing:0px;word-spacing:0px;stroke-width:0.264583"
       x="46.703865"
       y="157.76657"
       id="text582-6"><tspan
         sodipodi:role="line"
         id="tspan580-1"
         style="font-size:4.23333px;stroke-width:0.264583"
         x="46.703865"
         y="157.76657">Features</tspan></text>
  </g>
</svg>
