<?xml version="1.0" encoding="UTF-8"?>
<svg id="Layer_1" xmlns="http://www.w3.org/2000/svg" viewBox="0 0 850 480"><defs><style>.cls-1{fill:#fff;}.cls-2{fill:#76b900;}.cls-3{fill:#303030;}.cls-4{opacity:.8;}.cls-5{stroke:#9e9e9e;stroke-width:2px;}.cls-5,.cls-6,.cls-7{fill:none;}.cls-5,.cls-7{stroke-miterlimit:10;}.cls-7{stroke:#76b900;stroke-width:6px;}.cls-8{fill:#9e9e9e;}.cls-9{fill:#f2f2f2;}</style></defs><rect class="cls-9" x="188.075" y="73.884" width="659.525" height="387.649"/><g id="m48-person-user"><path class="cls-2" d="M33.541,155.118H11.696l-6.357,23.729H39.899l-6.357-23.729Zm-20.707,1.483h19.568l5.564,20.763H7.271l5.564-20.763Zm9.791-4.449c6.134,0,11.123-4.989,11.123-11.123s-4.989-11.123-11.123-11.123-11.123,4.989-11.123,11.123,4.989,11.123,11.123,11.123Zm0-20.763c5.315,0,9.64,4.325,9.64,9.64s-4.325,9.64-9.64,9.64-9.64-4.325-9.64-9.64,4.325-9.64,9.64-9.64Z"/></g><g id="m48-person-user-2"><path class="cls-2" d="M33.541,235.788H11.696l-6.357,23.729H39.899l-6.357-23.729Zm-20.707,1.483h19.568l5.564,20.763H7.271s5.564-20.763,5.564-20.763Zm9.791-4.449c6.134,0,11.123-4.989,11.123-11.123s-4.989-11.123-11.123-11.123-11.123,4.989-11.123,11.123,4.989,11.123,11.123,11.123Zm0-20.763c5.315,0,9.64,4.325,9.64,9.64s-4.325,9.64-9.64,9.64-9.64-4.325-9.64-9.64,4.325-9.64,9.64-9.64Z"/></g><g id="m48-person-user-3"><path class="cls-2" d="M33.541,316.457H11.696l-6.357,23.729H39.899l-6.357-23.729Zm-20.707,1.483h19.568l5.564,20.763H7.271l5.564-20.763Zm9.791-4.449c6.134,0,11.123-4.989,11.123-11.123s-4.989-11.123-11.123-11.123-11.123,4.989-11.123,11.123,4.989,11.123,11.123,11.123Zm0-20.763c5.315,0,9.64,4.325,9.64,9.64s-4.325,9.64-9.64,9.64-9.64-4.325-9.64-9.64,4.325-9.64,9.64-9.64Z"/></g><g id="m48-person-user-4"><path class="cls-2" d="M33.541,397.127H11.696l-6.357,23.729H39.899l-6.357-23.729Zm-20.707,1.483h19.568l5.564,20.763H7.271l5.564-20.763Zm9.791-4.449c6.134,0,11.123-4.989,11.123-11.123s-4.989-11.123-11.123-11.123-11.123,4.989-11.123,11.123,4.989,11.123,11.123,11.123Zm0-20.763c5.315,0,9.64,4.325,9.64,9.64s-4.325,9.64-9.64,9.64-9.64-4.325-9.64-9.64,4.325-9.64,9.64-9.64Z"/></g><g><g><rect class="cls-2" x="479.014" y="375.026" width="163.652" height="59.027"/><rect class="cls-2" x="479.014" y="302.094" width="163.652" height="59.027"/><rect class="cls-2" x="479.014" y="229.162" width="163.652" height="59.027"/><rect class="cls-2" x="479.014" y="156.229" width="163.652" height="59.027"/></g><g><path class="cls-3" d="M476.633,116.669l4.952-12.604h1.837l4.97,12.604h-2.233l-1.063-2.827h-5.312l-1.045,2.827h-2.106Zm3.8-4.538h4.033l-2.017-5.42-2.017,5.42Z"/><path class="cls-3" d="M490.246,116.669v-12.604h2.071v12.604h-2.071Z"/><path class="cls-3" d="M500.096,116.669v-12.604h2.071v12.604h-2.071Z"/><path class="cls-3" d="M505.083,116.669v-9.219h1.747v1.386c.288-.504,.681-.903,1.179-1.197,.498-.294,1.09-.441,1.774-.441h.18c1.044,0,1.879,.324,2.503,.973,.624,.648,.937,1.584,.937,2.809v5.69h-1.981v-5.42c0-.756-.161-1.335-.485-1.738-.324-.402-.816-.603-1.477-.603h-.126c-.385,0-.751,.096-1.099,.288-.349,.192-.631,.486-.847,.882s-.324,.9-.324,1.513v5.078h-1.98Z"/><path class="cls-3" d="M516.77,116.669v-7.581h-1.891v-1.639h1.891v-.667c0-1.068,.27-1.894,.811-2.476,.54-.583,1.416-.874,2.629-.874h1.566v1.675h-1.495c-.54,0-.93,.135-1.17,.405-.24,.271-.36,.669-.36,1.198v.738h3.025l-.234,1.639h-2.791v7.581h-1.98Z"/><path class="cls-3" d="M526.8,116.903c-1.345,0-2.393-.393-3.143-1.179s-1.125-1.906-1.125-3.358v-.594c0-1.428,.384-2.548,1.152-3.358,.768-.811,1.807-1.216,3.115-1.216h.162c1.248,0,2.235,.391,2.962,1.17,.726,.781,1.089,1.831,1.089,3.151v1.099h-6.536c.036,.9,.255,1.573,.657,2.017,.402,.444,.957,.666,1.666,.666h.27c.54,0,.987-.093,1.342-.279,.354-.186,.64-.465,.855-.837l1.44,.937c-.324,.552-.799,.987-1.423,1.305s-1.362,.477-2.215,.477h-.27Zm-2.305-5.672h4.591v-.126c0-.744-.188-1.312-.566-1.702-.379-.39-.903-.585-1.576-.585h-.144c-.66,0-1.191,.205-1.594,.612-.402,.408-.64,1.008-.711,1.801Z"/><path class="cls-3" d="M533.065,116.669v-9.219h1.747v1.747c.228-.564,.549-1.014,.963-1.351,.414-.336,.993-.504,1.737-.504h.937v1.837h-.918c-.433,0-.838,.096-1.216,.288-.378,.192-.684,.495-.918,.909-.234,.415-.352,.963-.352,1.648v4.646h-1.98Z"/><path class="cls-3" d="M543.654,116.903c-1.345,0-2.393-.393-3.143-1.179s-1.125-1.906-1.125-3.358v-.594c0-1.428,.384-2.548,1.152-3.358,.768-.811,1.807-1.216,3.115-1.216h.162c1.248,0,2.235,.391,2.962,1.17,.726,.781,1.089,1.831,1.089,3.151v1.099h-6.536c.036,.9,.255,1.573,.657,2.017,.402,.444,.957,.666,1.666,.666h.27c.54,0,.987-.093,1.342-.279,.354-.186,.64-.465,.855-.837l1.44,.937c-.324,.552-.799,.987-1.423,1.305s-1.362,.477-2.215,.477h-.27Zm-2.305-5.672h4.591v-.126c0-.744-.188-1.312-.566-1.702-.379-.39-.903-.585-1.576-.585h-.144c-.66,0-1.191,.205-1.594,.612-.402,.408-.64,1.008-.711,1.801Z"/><path class="cls-3" d="M549.92,116.669v-9.219h1.747v1.386c.288-.504,.681-.903,1.179-1.197,.498-.294,1.09-.441,1.774-.441h.18c1.044,0,1.879,.324,2.503,.973,.624,.648,.937,1.584,.937,2.809v5.69h-1.981v-5.42c0-.756-.161-1.335-.485-1.738-.324-.402-.816-.603-1.477-.603h-.126c-.385,0-.751,.096-1.099,.288-.349,.192-.631,.486-.847,.882s-.324,.9-.324,1.513v5.078h-1.98Z"/><path class="cls-3" d="M564.612,116.903c-1.344,0-2.41-.393-3.196-1.179s-1.179-1.912-1.179-3.376v-.594c0-.96,.183-1.779,.549-2.458s.879-1.198,1.54-1.558c.66-.36,1.422-.541,2.286-.541h.181c.852,0,1.575,.205,2.17,.612,.594,.408,1.022,.949,1.287,1.621l-1.585,.702c-.18-.372-.423-.669-.729-.891-.307-.222-.688-.333-1.144-.333h-.162c-.709,0-1.288,.234-1.738,.702s-.675,1.17-.675,2.107v.666c0,.973,.219,1.687,.657,2.143s1.023,.684,1.756,.684h.162c.479,0,.882-.105,1.206-.315s.576-.496,.757-.855l1.548,.81c-.264,.601-.702,1.093-1.314,1.477-.612,.384-1.345,.576-2.196,.576h-.181Z"/><path class="cls-3" d="M574.03,116.903c-1.345,0-2.393-.393-3.143-1.179s-1.125-1.906-1.125-3.358v-.594c0-1.428,.384-2.548,1.152-3.358,.768-.811,1.807-1.216,3.115-1.216h.162c1.248,0,2.235,.391,2.962,1.17,.726,.781,1.089,1.831,1.089,3.151v1.099h-6.536c.036,.9,.255,1.573,.657,2.017,.402,.444,.957,.666,1.666,.666h.27c.54,0,.987-.093,1.342-.279,.354-.186,.64-.465,.855-.837l1.44,.937c-.324,.552-.799,.987-1.423,1.305s-1.362,.477-2.215,.477h-.27Zm-2.305-5.672h4.591v-.126c0-.744-.188-1.312-.566-1.702-.379-.39-.903-.585-1.576-.585h-.144c-.66,0-1.191,.205-1.594,.612-.402,.408-.64,1.008-.711,1.801Z"/><path class="cls-3" d="M590.164,116.903c-1.813,0-3.196-.54-4.15-1.621-.954-1.08-1.432-2.599-1.432-4.556v-.756c0-1.261,.222-2.35,.666-3.269,.444-.918,1.083-1.626,1.918-2.125,.834-.498,1.834-.748,2.998-.748h.18c1.213,0,2.227,.273,3.044,.819,.815,.546,1.392,1.318,1.729,2.314l-1.909,.667c-.204-.672-.556-1.173-1.054-1.504-.498-.33-1.101-.495-1.81-.495h-.162c-1.104,0-1.969,.366-2.593,1.099s-.937,1.8-.937,3.205v.846c0,1.44,.304,2.521,.91,3.241,.605,.72,1.479,1.081,2.619,1.081h.162c.732,0,1.356-.162,1.873-.486,.516-.324,.876-.811,1.08-1.458l1.873,.72c-.349,.96-.939,1.705-1.773,2.233-.835,.528-1.853,.792-3.053,.792h-.18Z"/><path class="cls-3" d="M597.15,116.669v-13.145h1.98v13.145h-1.98Z"/><path class="cls-3" d="M604.966,116.903c-1.021,0-1.834-.321-2.44-.963-.606-.642-.909-1.575-.909-2.8v-5.69h1.98v5.402c0,.769,.153,1.354,.459,1.756,.307,.402,.771,.603,1.396,.603h.126c.372,0,.724-.096,1.054-.288s.601-.489,.811-.892c.21-.402,.315-.903,.315-1.503v-5.078h1.98v9.219h-1.765v-1.369c-.276,.493-.654,.882-1.135,1.17s-1.051,.432-1.71,.432h-.162Z"/><path class="cls-3" d="M615.499,116.903c-2.089,0-3.421-.702-3.997-2.106l1.549-.792c.203,.432,.501,.75,.891,.955,.391,.204,.915,.306,1.576,.306h.216c1.236,0,1.854-.366,1.854-1.099v-.072c0-.625-.391-.991-1.17-1.099l-1.963-.27c-.853-.12-1.51-.399-1.972-.837-.463-.438-.693-1.023-.693-1.756v-.198c0-.829,.324-1.492,.973-1.99,.647-.498,1.512-.748,2.593-.748h.252c.888,0,1.65,.18,2.287,.541,.636,.36,1.086,.858,1.35,1.495l-1.584,.702c-.324-.732-1.015-1.099-2.071-1.099h-.216c-.528,0-.939,.096-1.233,.288-.294,.192-.441,.457-.441,.792v.09c0,.276,.087,.495,.262,.657,.174,.162,.465,.273,.873,.333l1.999,.27c.852,.12,1.509,.417,1.972,.891,.462,.475,.693,1.083,.693,1.828v.198c0,.889-.318,1.563-.955,2.026-.636,.462-1.566,.693-2.791,.693h-.252Z"/><path class="cls-3" d="M625.6,116.759c-1.164,0-1.992-.261-2.484-.783-.492-.522-.738-1.27-.738-2.242v-4.646h-1.944v-1.639h1.944v-2.719h1.98v2.719h3.007l-.233,1.639h-2.773v4.556c0,.516,.12,.885,.36,1.107s.601,.333,1.08,.333h1.566v1.674h-1.765Z"/><path class="cls-3" d="M633.091,116.903c-1.345,0-2.393-.393-3.143-1.179s-1.125-1.906-1.125-3.358v-.594c0-1.428,.384-2.548,1.152-3.358,.768-.811,1.807-1.216,3.115-1.216h.162c1.248,0,2.235,.391,2.962,1.17,.726,.781,1.089,1.831,1.089,3.151v1.099h-6.536c.036,.9,.255,1.573,.657,2.017,.402,.444,.957,.666,1.666,.666h.27c.54,0,.987-.093,1.342-.279,.354-.186,.64-.465,.855-.837l1.44,.937c-.324,.552-.799,.987-1.423,1.305s-1.362,.477-2.215,.477h-.27Zm-2.305-5.672h4.591v-.126c0-.744-.188-1.312-.566-1.702-.379-.39-.903-.585-1.576-.585h-.144c-.66,0-1.191,.205-1.594,.612-.402,.408-.64,1.008-.711,1.801Z"/><path class="cls-3" d="M639.356,116.669v-9.219h1.747v1.747c.228-.564,.549-1.014,.963-1.351,.414-.336,.993-.504,1.737-.504h.937v1.837h-.918c-.433,0-.838,.096-1.216,.288-.378,.192-.684,.495-.918,.909-.234,.415-.352,.963-.352,1.648v4.646h-1.98Z"/><path class="cls-3" d="M518.813,138.511c-1.813,0-3.196-.54-4.15-1.621-.954-1.08-1.432-2.599-1.432-4.556v-.756c0-1.261,.222-2.35,.666-3.269,.444-.918,1.083-1.626,1.918-2.125,.834-.498,1.834-.748,2.998-.748h.18c1.213,0,2.227,.273,3.044,.819,.815,.546,1.392,1.318,1.729,2.314l-1.909,.667c-.204-.672-.556-1.173-1.054-1.504-.498-.33-1.101-.495-1.81-.495h-.162c-1.104,0-1.969,.366-2.593,1.099s-.937,1.8-.937,3.205v.846c0,1.44,.304,2.521,.91,3.241,.605,.72,1.479,1.081,2.619,1.081h.162c.732,0,1.356-.162,1.873-.486,.516-.324,.876-.811,1.08-1.458l1.873,.72c-.349,.96-.939,1.705-1.773,2.233-.835,.528-1.853,.792-3.053,.792h-.18Z"/><path class="cls-3" d="M526.088,138.277v-12.604h4.609c1.429,0,2.558,.345,3.386,1.035,.828,.69,1.242,1.642,1.242,2.854v.378c0,1.249-.414,2.212-1.242,2.89s-1.957,1.017-3.386,1.017h-2.538v4.43h-2.071Zm2.071-6.194h2.484c.792,0,1.426-.168,1.899-.504,.475-.336,.712-.865,.712-1.585v-.468c0-.708-.237-1.23-.712-1.567-.474-.336-1.107-.504-1.899-.504h-2.484v4.627Z"/><path class="cls-3" d="M547.587,125.672v7.653c0,1.632-.429,2.905-1.287,3.817s-2.086,1.368-3.683,1.368h-.198c-1.597,0-2.824-.456-3.682-1.368-.858-.912-1.288-2.185-1.288-3.817v-7.653h2.071v7.707c0,1.129,.252,1.966,.756,2.512s1.225,.819,2.161,.819h.18c.937,0,1.657-.273,2.161-.819s.756-1.383,.756-2.512v-7.707h2.053Z"/><path class="cls-3" d="M559.58,141.032v-15.9h1.873v15.9h-1.873Z"/><path class="cls-3" d="M579.081,138.511c-1.921,0-3.377-.519-4.367-1.557-.99-1.039-1.485-2.56-1.485-4.565v-.756c0-1.296,.225-2.407,.675-3.331s1.096-1.632,1.937-2.125c.84-.492,1.836-.738,2.988-.738h.198c1.177,0,2.173,.252,2.989,.756,.816,.504,1.398,1.237,1.747,2.197l-1.891,.667c-.396-1.212-1.351-1.819-2.863-1.819h-.162c-1.129,0-2.002,.378-2.62,1.134-.618,.756-.928,1.831-.928,3.223v.847c0,2.845,1.255,4.268,3.764,4.268h.162c.54,0,1.047-.051,1.521-.153,.475-.102,.886-.249,1.233-.441v-2.899h-2.935l.233-1.729h4.682v5.618c-.563,.444-1.248,.79-2.053,1.035-.804,.246-1.687,.369-2.646,.369h-.18Z"/><path class="cls-3" d="M586.733,138.277v-12.604h4.609c1.429,0,2.558,.345,3.386,1.035,.828,.69,1.242,1.642,1.242,2.854v.378c0,1.249-.414,2.212-1.242,2.89s-1.957,1.017-3.386,1.017h-2.538v4.43h-2.071Zm2.071-6.194h2.484c.792,0,1.426-.168,1.899-.504,.475-.336,.712-.865,.712-1.585v-.468c0-.708-.237-1.23-.712-1.567-.474-.336-1.107-.504-1.899-.504h-2.484v4.627Z"/><path class="cls-3" d="M608.232,125.672v7.653c0,1.632-.429,2.905-1.287,3.817s-2.086,1.368-3.683,1.368h-.198c-1.597,0-2.824-.456-3.682-1.368-.858-.912-1.288-2.185-1.288-3.817v-7.653h2.071v7.707c0,1.129,.252,1.966,.756,2.512s1.225,.819,2.161,.819h.18c.937,0,1.657-.273,2.161-.819s.756-1.383,.756-2.512v-7.707h2.053Z"/></g><g><path class="cls-1" d="M496.607,180.733v-10.822h-3.907v-1.783h9.886v1.783h-3.908v10.822h-2.07Z"/><path class="cls-1" d="M503.359,180.733v-9.219h1.747v1.747c.228-.564,.549-1.014,.963-1.351,.414-.336,.993-.504,1.737-.504h.937v1.837h-.918c-.433,0-.838,.096-1.216,.288-.378,.192-.684,.495-.918,.909-.234,.415-.352,.963-.352,1.648v4.646h-1.98Z"/><path class="cls-1" d="M510.58,169.875v-2.071h2.053v2.071h-2.053Zm.036,10.858v-9.219h1.98v9.219h-1.98Z"/><path class="cls-1" d="M519.259,180.823c-1.164,0-1.992-.261-2.484-.783-.492-.522-.738-1.27-.738-2.242v-4.646h-1.944v-1.639h1.944v-2.719h1.98v2.719h3.007l-.233,1.639h-2.773v4.556c0,.516,.12,.885,.36,1.107s.601,.333,1.08,.333h1.566v1.674h-1.765Z"/><path class="cls-1" d="M526.84,180.967c-.828,0-1.569-.177-2.224-.531-.654-.354-1.174-.874-1.558-1.558-.385-.685-.576-1.506-.576-2.467v-.576c0-.972,.191-1.797,.576-2.476,.384-.678,.903-1.198,1.558-1.558,.654-.36,1.396-.541,2.224-.541h.162c.828,0,1.572,.18,2.232,.541,.66,.36,1.18,.879,1.558,1.558s.567,1.498,.567,2.458v.594c0,.961-.189,1.783-.567,2.467-.378,.684-.897,1.204-1.558,1.558-.66,.354-1.404,.531-2.232,.531h-.162Zm0-1.692h.144c.685,0,1.255-.234,1.711-.702s.685-1.176,.685-2.125v-.666c0-.948-.229-1.654-.685-2.116-.456-.462-1.026-.693-1.711-.693h-.144c-.673,0-1.236,.231-1.692,.693-.457,.462-.685,1.167-.685,2.116v.666c0,.949,.228,1.657,.685,2.125,.456,.468,1.02,.702,1.692,.702Z"/><path class="cls-1" d="M533.484,180.733v-9.219h1.747v1.386c.288-.504,.681-.903,1.179-1.197,.498-.294,1.09-.441,1.774-.441h.18c1.044,0,1.879,.324,2.503,.973,.624,.648,.937,1.584,.937,2.809v5.69h-1.981v-5.42c0-.756-.161-1.335-.485-1.738-.324-.402-.816-.603-1.477-.603h-.126c-.385,0-.751,.096-1.099,.288-.349,.192-.631,.486-.847,.882s-.324,.9-.324,1.513v5.078h-1.98Z"/><path class="cls-1" d="M549.168,180.733v-12.604h2.071v12.604h-2.071Z"/><path class="cls-1" d="M554.156,180.733v-9.219h1.747v1.386c.288-.504,.681-.903,1.179-1.197,.498-.294,1.09-.441,1.774-.441h.18c1.044,0,1.879,.324,2.503,.973,.624,.648,.937,1.584,.937,2.809v5.69h-1.981v-5.42c0-.756-.161-1.335-.485-1.738-.324-.402-.816-.603-1.477-.603h-.126c-.385,0-.751,.096-1.099,.288-.349,.192-.631,.486-.847,.882s-.324,.9-.324,1.513v5.078h-1.98Z"/><path class="cls-1" d="M565.843,180.733v-7.581h-1.891v-1.639h1.891v-.667c0-1.068,.27-1.894,.811-2.476,.54-.583,1.416-.874,2.629-.874h1.566v1.675h-1.495c-.54,0-.93,.135-1.17,.405-.24,.271-.36,.669-.36,1.198v.738h3.025l-.234,1.639h-2.791v7.581h-1.98Z"/><path class="cls-1" d="M575.872,180.967c-1.345,0-2.393-.393-3.143-1.179s-1.125-1.906-1.125-3.358v-.594c0-1.428,.384-2.548,1.152-3.358,.768-.811,1.807-1.216,3.115-1.216h.162c1.248,0,2.235,.391,2.962,1.17,.726,.781,1.089,1.831,1.089,3.151v1.099h-6.536c.036,.9,.255,1.573,.657,2.017,.402,.444,.957,.666,1.666,.666h.27c.54,0,.987-.093,1.342-.279,.354-.186,.64-.465,.855-.837l1.44,.937c-.324,.552-.799,.987-1.423,1.305s-1.362,.477-2.215,.477h-.27Zm-2.305-5.672h4.591v-.126c0-.744-.188-1.312-.566-1.702-.379-.39-.903-.585-1.576-.585h-.144c-.66,0-1.191,.205-1.594,.612-.402,.408-.64,1.008-.711,1.801Z"/><path class="cls-1" d="M582.138,180.733v-9.219h1.747v1.747c.228-.564,.549-1.014,.963-1.351,.414-.336,.993-.504,1.737-.504h.937v1.837h-.918c-.433,0-.838,.096-1.216,.288-.378,.192-.684,.495-.918,.909-.234,.415-.352,.963-.352,1.648v4.646h-1.98Z"/><path class="cls-1" d="M592.727,180.967c-1.345,0-2.393-.393-3.143-1.179s-1.125-1.906-1.125-3.358v-.594c0-1.428,.384-2.548,1.152-3.358,.768-.811,1.807-1.216,3.115-1.216h.162c1.248,0,2.235,.391,2.962,1.17,.726,.781,1.089,1.831,1.089,3.151v1.099h-6.536c.036,.9,.255,1.573,.657,2.017,.402,.444,.957,.666,1.666,.666h.27c.54,0,.987-.093,1.342-.279,.354-.186,.64-.465,.855-.837l1.44,.937c-.324,.552-.799,.987-1.423,1.305s-1.362,.477-2.215,.477h-.27Zm-2.305-5.672h4.591v-.126c0-.744-.188-1.312-.566-1.702-.379-.39-.903-.585-1.576-.585h-.144c-.66,0-1.191,.205-1.594,.612-.402,.408-.64,1.008-.711,1.801Z"/><path class="cls-1" d="M598.992,180.733v-9.219h1.747v1.386c.288-.504,.681-.903,1.179-1.197,.498-.294,1.09-.441,1.774-.441h.18c1.044,0,1.879,.324,2.503,.973,.624,.648,.937,1.584,.937,2.809v5.69h-1.981v-5.42c0-.756-.161-1.335-.485-1.738-.324-.402-.816-.603-1.477-.603h-.126c-.385,0-.751,.096-1.099,.288-.349,.192-.631,.486-.847,.882s-.324,.9-.324,1.513v5.078h-1.98Z"/><path class="cls-1" d="M613.686,180.967c-1.344,0-2.41-.393-3.196-1.179s-1.179-1.912-1.179-3.376v-.594c0-.96,.183-1.779,.549-2.458s.879-1.198,1.54-1.558c.66-.36,1.422-.541,2.286-.541h.181c.852,0,1.575,.205,2.17,.612,.594,.408,1.022,.949,1.287,1.621l-1.585,.702c-.18-.372-.423-.669-.729-.891-.307-.222-.688-.333-1.144-.333h-.162c-.709,0-1.288,.234-1.738,.702s-.675,1.17-.675,2.107v.666c0,.973,.219,1.687,.657,2.143s1.023,.684,1.756,.684h.162c.479,0,.882-.105,1.206-.315s.576-.496,.757-.855l1.548,.81c-.264,.601-.702,1.093-1.314,1.477-.612,.384-1.345,.576-2.196,.576h-.181Z"/><path class="cls-1" d="M623.104,180.967c-1.345,0-2.393-.393-3.143-1.179s-1.125-1.906-1.125-3.358v-.594c0-1.428,.384-2.548,1.152-3.358,.768-.811,1.807-1.216,3.115-1.216h.162c1.248,0,2.235,.391,2.962,1.17,.726,.781,1.089,1.831,1.089,3.151v1.099h-6.536c.036,.9,.255,1.573,.657,2.017,.402,.444,.957,.666,1.666,.666h.27c.54,0,.987-.093,1.342-.279,.354-.186,.64-.465,.855-.837l1.44,.937c-.324,.552-.799,.987-1.423,1.305s-1.362,.477-2.215,.477h-.27Zm-2.305-5.672h4.591v-.126c0-.744-.188-1.312-.566-1.702-.379-.39-.903-.585-1.576-.585h-.144c-.66,0-1.191,.205-1.594,.612-.402,.408-.64,1.008-.711,1.801Z"/><path class="cls-1" d="M538.293,202.575c-2.557,0-4.195-.918-4.916-2.755l1.729-.9c.265,.625,.654,1.093,1.171,1.405,.516,.312,1.182,.468,1.999,.468h.216c.864,0,1.53-.153,1.999-.459,.468-.306,.702-.753,.702-1.341v-.198c0-.492-.15-.897-.45-1.215-.301-.318-.769-.519-1.405-.603l-2.124-.324c-2.317-.312-3.476-1.458-3.476-3.439v-.216c0-.708,.189-1.324,.567-1.846,.378-.522,.906-.928,1.584-1.216,.679-.288,1.468-.432,2.368-.432h.252c1.116,0,2.064,.225,2.846,.675,.78,.45,1.338,1.102,1.674,1.954l-1.8,.774c-.409-1.092-1.321-1.639-2.737-1.639h-.216c-.769,0-1.375,.156-1.819,.468-.444,.313-.666,.727-.666,1.243v.216c0,.889,.606,1.429,1.818,1.621l2.125,.306c1.177,.156,2.056,.549,2.638,1.18,.582,.63,.874,1.443,.874,2.44v.216c0,1.141-.412,2.029-1.233,2.665-.823,.636-1.979,.954-3.467,.954h-.252Z"/><path class="cls-1" d="M548.989,202.575c-1.345,0-2.393-.393-3.143-1.179s-1.125-1.906-1.125-3.358v-.594c0-1.428,.384-2.548,1.152-3.358,.768-.811,1.807-1.216,3.115-1.216h.162c1.248,0,2.235,.391,2.962,1.17,.726,.781,1.089,1.831,1.089,3.151v1.099h-6.536c.036,.9,.255,1.573,.657,2.017,.402,.444,.957,.666,1.666,.666h.27c.54,0,.987-.093,1.342-.279,.354-.186,.64-.465,.855-.837l1.44,.937c-.324,.552-.799,.987-1.423,1.305s-1.362,.477-2.215,.477h-.27Zm-2.305-5.672h4.591v-.126c0-.744-.188-1.312-.566-1.702-.379-.39-.903-.585-1.576-.585h-.144c-.66,0-1.191,.205-1.594,.612-.402,.408-.64,1.008-.711,1.801Z"/><path class="cls-1" d="M555.255,202.341v-9.219h1.747v1.747c.228-.564,.549-1.014,.963-1.351,.414-.336,.993-.504,1.737-.504h.937v1.837h-.918c-.433,0-.838,.096-1.216,.288-.378,.192-.684,.495-.918,.909-.234,.415-.352,.963-.352,1.648v4.646h-1.98Z"/><path class="cls-1" d="M565.267,202.341l-3.565-9.219h2.089l2.395,6.789,2.396-6.789h1.963l-3.548,9.219h-1.729Z"/><path class="cls-1" d="M575.477,202.575c-1.345,0-2.393-.393-3.143-1.179s-1.125-1.906-1.125-3.358v-.594c0-1.428,.384-2.548,1.152-3.358,.768-.811,1.807-1.216,3.115-1.216h.162c1.248,0,2.235,.391,2.962,1.17,.726,.781,1.089,1.831,1.089,3.151v1.099h-6.536c.036,.9,.255,1.573,.657,2.017,.402,.444,.957,.666,1.666,.666h.27c.54,0,.987-.093,1.342-.279,.354-.186,.64-.465,.855-.837l1.44,.937c-.324,.552-.799,.987-1.423,1.305s-1.362,.477-2.215,.477h-.27Zm-2.305-5.672h4.591v-.126c0-.744-.188-1.312-.566-1.702-.379-.39-.903-.585-1.576-.585h-.144c-.66,0-1.191,.205-1.594,.612-.402,.408-.64,1.008-.711,1.801Z"/><path class="cls-1" d="M581.742,202.341v-9.219h1.747v1.747c.228-.564,.549-1.014,.963-1.351,.414-.336,.993-.504,1.737-.504h.937v1.837h-.918c-.433,0-.838,.096-1.216,.288-.378,.192-.684,.495-.918,.909-.234,.415-.352,.963-.352,1.648v4.646h-1.98Z"/></g><g><path class="cls-1" d="M496.607,254.268v-10.822h-3.907v-1.782h9.886v1.782h-3.908v10.822h-2.07Z"/><path class="cls-1" d="M503.359,254.268v-9.22h1.747v1.747c.228-.564,.549-1.015,.963-1.351s.993-.504,1.737-.504h.937v1.836h-.918c-.433,0-.838,.097-1.216,.289-.378,.191-.684,.495-.918,.909s-.352,.963-.352,1.647v4.646h-1.98Z"/><path class="cls-1" d="M510.58,243.409v-2.07h2.053v2.07h-2.053Zm.036,10.858v-9.22h1.98v9.22h-1.98Z"/><path class="cls-1" d="M519.259,254.357c-1.164,0-1.992-.261-2.484-.783s-.738-1.27-.738-2.242v-4.646h-1.944v-1.639h1.944v-2.719h1.98v2.719h3.007l-.233,1.639h-2.773v4.556c0,.517,.12,.886,.36,1.107,.24,.223,.601,.333,1.08,.333h1.566v1.675h-1.765Z"/><path class="cls-1" d="M526.84,254.502c-.828,0-1.569-.178-2.224-.531-.654-.354-1.174-.874-1.558-1.558-.385-.685-.576-1.507-.576-2.467v-.576c0-.973,.191-1.798,.576-2.477,.384-.678,.903-1.197,1.558-1.558,.654-.359,1.396-.54,2.224-.54h.162c.828,0,1.572,.181,2.232,.54,.66,.36,1.18,.88,1.558,1.558,.378,.679,.567,1.498,.567,2.458v.595c0,.96-.189,1.782-.567,2.467-.378,.684-.897,1.203-1.558,1.558-.66,.354-1.404,.531-2.232,.531h-.162Zm0-1.693h.144c.685,0,1.255-.233,1.711-.702,.456-.468,.685-1.176,.685-2.124v-.667c0-.948-.229-1.653-.685-2.115s-1.026-.693-1.711-.693h-.144c-.673,0-1.236,.231-1.692,.693-.457,.462-.685,1.167-.685,2.115v.667c0,.948,.228,1.656,.685,2.124,.456,.469,1.02,.702,1.692,.702Z"/><path class="cls-1" d="M533.484,254.268v-9.22h1.747v1.387c.288-.504,.681-.903,1.179-1.197s1.09-.441,1.774-.441h.18c1.044,0,1.879,.324,2.503,.973s.937,1.585,.937,2.809v5.69h-1.981v-5.42c0-.756-.161-1.335-.485-1.737s-.816-.604-1.477-.604h-.126c-.385,0-.751,.096-1.099,.288-.349,.192-.631,.486-.847,.882-.216,.396-.324,.9-.324,1.513v5.078h-1.98Z"/><path class="cls-1" d="M549.168,254.268v-12.604h2.071v12.604h-2.071Z"/><path class="cls-1" d="M554.156,254.268v-9.22h1.747v1.387c.288-.504,.681-.903,1.179-1.197s1.09-.441,1.774-.441h.18c1.044,0,1.879,.324,2.503,.973s.937,1.585,.937,2.809v5.69h-1.981v-5.42c0-.756-.161-1.335-.485-1.737s-.816-.604-1.477-.604h-.126c-.385,0-.751,.096-1.099,.288-.349,.192-.631,.486-.847,.882-.216,.396-.324,.9-.324,1.513v5.078h-1.98Z"/><path class="cls-1" d="M565.843,254.268v-7.581h-1.891v-1.639h1.891v-.666c0-1.068,.27-1.894,.811-2.476,.54-.582,1.416-.873,2.629-.873h1.566v1.674h-1.495c-.54,0-.93,.136-1.17,.405-.24,.271-.36,.67-.36,1.197v.738h3.025l-.234,1.639h-2.791v7.581h-1.98Z"/><path class="cls-1" d="M575.872,254.502c-1.345,0-2.393-.394-3.143-1.18s-1.125-1.905-1.125-3.358v-.594c0-1.429,.384-2.548,1.152-3.358,.768-.811,1.807-1.216,3.115-1.216h.162c1.248,0,2.235,.391,2.962,1.171,.726,.78,1.089,1.83,1.089,3.151v1.098h-6.536c.036,.9,.255,1.573,.657,2.017,.402,.444,.957,.667,1.666,.667h.27c.54,0,.987-.093,1.342-.279,.354-.187,.64-.465,.855-.838l1.44,.937c-.324,.553-.799,.988-1.423,1.306-.624,.318-1.362,.478-2.215,.478h-.27Zm-2.305-5.672h4.591v-.127c0-.744-.188-1.311-.566-1.701-.379-.39-.903-.585-1.576-.585h-.144c-.66,0-1.191,.204-1.594,.612s-.64,1.008-.711,1.801Z"/><path class="cls-1" d="M582.138,254.268v-9.22h1.747v1.747c.228-.564,.549-1.015,.963-1.351s.993-.504,1.737-.504h.937v1.836h-.918c-.433,0-.838,.097-1.216,.289-.378,.191-.684,.495-.918,.909s-.352,.963-.352,1.647v4.646h-1.98Z"/><path class="cls-1" d="M592.727,254.502c-1.345,0-2.393-.394-3.143-1.18s-1.125-1.905-1.125-3.358v-.594c0-1.429,.384-2.548,1.152-3.358,.768-.811,1.807-1.216,3.115-1.216h.162c1.248,0,2.235,.391,2.962,1.171,.726,.78,1.089,1.83,1.089,3.151v1.098h-6.536c.036,.9,.255,1.573,.657,2.017,.402,.444,.957,.667,1.666,.667h.27c.54,0,.987-.093,1.342-.279,.354-.187,.64-.465,.855-.838l1.44,.937c-.324,.553-.799,.988-1.423,1.306-.624,.318-1.362,.478-2.215,.478h-.27Zm-2.305-5.672h4.591v-.127c0-.744-.188-1.311-.566-1.701-.379-.39-.903-.585-1.576-.585h-.144c-.66,0-1.191,.204-1.594,.612s-.64,1.008-.711,1.801Z"/><path class="cls-1" d="M598.992,254.268v-9.22h1.747v1.387c.288-.504,.681-.903,1.179-1.197s1.09-.441,1.774-.441h.18c1.044,0,1.879,.324,2.503,.973s.937,1.585,.937,2.809v5.69h-1.981v-5.42c0-.756-.161-1.335-.485-1.737s-.816-.604-1.477-.604h-.126c-.385,0-.751,.096-1.099,.288-.349,.192-.631,.486-.847,.882-.216,.396-.324,.9-.324,1.513v5.078h-1.98Z"/><path class="cls-1" d="M613.686,254.502c-1.344,0-2.41-.394-3.196-1.18s-1.179-1.911-1.179-3.376v-.595c0-.96,.183-1.779,.549-2.458,.366-.678,.879-1.197,1.54-1.558,.66-.359,1.422-.54,2.286-.54h.181c.852,0,1.575,.204,2.17,.612,.594,.408,1.022,.948,1.287,1.621l-1.585,.702c-.18-.372-.423-.669-.729-.892-.307-.222-.688-.333-1.144-.333h-.162c-.709,0-1.288,.234-1.738,.702s-.675,1.171-.675,2.106v.667c0,.972,.219,1.687,.657,2.143s1.023,.684,1.756,.684h.162c.479,0,.882-.104,1.206-.314s.576-.495,.757-.855l1.548,.811c-.264,.601-.702,1.092-1.314,1.477-.612,.384-1.345,.576-2.196,.576h-.181Z"/><path class="cls-1" d="M623.104,254.502c-1.345,0-2.393-.394-3.143-1.18s-1.125-1.905-1.125-3.358v-.594c0-1.429,.384-2.548,1.152-3.358,.768-.811,1.807-1.216,3.115-1.216h.162c1.248,0,2.235,.391,2.962,1.171,.726,.78,1.089,1.83,1.089,3.151v1.098h-6.536c.036,.9,.255,1.573,.657,2.017,.402,.444,.957,.667,1.666,.667h.27c.54,0,.987-.093,1.342-.279,.354-.187,.64-.465,.855-.838l1.44,.937c-.324,.553-.799,.988-1.423,1.306-.624,.318-1.362,.478-2.215,.478h-.27Zm-2.305-5.672h4.591v-.127c0-.744-.188-1.311-.566-1.701-.379-.39-.903-.585-1.576-.585h-.144c-.66,0-1.191,.204-1.594,.612s-.64,1.008-.711,1.801Z"/><path class="cls-1" d="M538.293,276.109c-2.557,0-4.195-.919-4.916-2.755l1.729-.9c.265,.624,.654,1.092,1.171,1.404,.516,.313,1.182,.468,1.999,.468h.216c.864,0,1.53-.152,1.999-.459,.468-.306,.702-.753,.702-1.342v-.197c0-.492-.15-.897-.45-1.216-.301-.318-.769-.52-1.405-.604l-2.124-.324c-2.317-.312-3.476-1.458-3.476-3.438v-.217c0-.708,.189-1.323,.567-1.846,.378-.521,.906-.927,1.584-1.215,.679-.288,1.468-.433,2.368-.433h.252c1.116,0,2.064,.226,2.846,.676,.78,.45,1.338,1.102,1.674,1.953l-1.8,.774c-.409-1.092-1.321-1.639-2.737-1.639h-.216c-.769,0-1.375,.156-1.819,.469-.444,.312-.666,.726-.666,1.242v.216c0,.889,.606,1.429,1.818,1.621l2.125,.306c1.177,.156,2.056,.549,2.638,1.18,.582,.63,.874,1.443,.874,2.439v.217c0,1.14-.412,2.028-1.233,2.664-.823,.637-1.979,.955-3.467,.955h-.252Z"/><path class="cls-1" d="M548.989,276.109c-1.345,0-2.393-.394-3.143-1.18s-1.125-1.905-1.125-3.358v-.594c0-1.429,.384-2.548,1.152-3.358,.768-.811,1.807-1.216,3.115-1.216h.162c1.248,0,2.235,.391,2.962,1.171,.726,.78,1.089,1.83,1.089,3.151v1.098h-6.536c.036,.9,.255,1.573,.657,2.017,.402,.444,.957,.667,1.666,.667h.27c.54,0,.987-.093,1.342-.279,.354-.187,.64-.465,.855-.838l1.44,.937c-.324,.553-.799,.988-1.423,1.306-.624,.318-1.362,.478-2.215,.478h-.27Zm-2.305-5.672h4.591v-.127c0-.744-.188-1.311-.566-1.701-.379-.39-.903-.585-1.576-.585h-.144c-.66,0-1.191,.204-1.594,.612s-.64,1.008-.711,1.801Z"/><path class="cls-1" d="M555.255,275.875v-9.22h1.747v1.747c.228-.564,.549-1.015,.963-1.351s.993-.504,1.737-.504h.937v1.836h-.918c-.433,0-.838,.097-1.216,.289-.378,.191-.684,.495-.918,.909s-.352,.963-.352,1.647v4.646h-1.98Z"/><path class="cls-1" d="M565.267,275.875l-3.565-9.22h2.089l2.395,6.789,2.396-6.789h1.963l-3.548,9.22h-1.729Z"/><path class="cls-1" d="M575.477,276.109c-1.345,0-2.393-.394-3.143-1.18s-1.125-1.905-1.125-3.358v-.594c0-1.429,.384-2.548,1.152-3.358,.768-.811,1.807-1.216,3.115-1.216h.162c1.248,0,2.235,.391,2.962,1.171,.726,.78,1.089,1.83,1.089,3.151v1.098h-6.536c.036,.9,.255,1.573,.657,2.017,.402,.444,.957,.667,1.666,.667h.27c.54,0,.987-.093,1.342-.279,.354-.187,.64-.465,.855-.838l1.44,.937c-.324,.553-.799,.988-1.423,1.306-.624,.318-1.362,.478-2.215,.478h-.27Zm-2.305-5.672h4.591v-.127c0-.744-.188-1.311-.566-1.701-.379-.39-.903-.585-1.576-.585h-.144c-.66,0-1.191,.204-1.594,.612s-.64,1.008-.711,1.801Z"/><path class="cls-1" d="M581.742,275.875v-9.22h1.747v1.747c.228-.564,.549-1.015,.963-1.351s.993-.504,1.737-.504h.937v1.836h-.918c-.433,0-.838,.097-1.216,.289-.378,.191-.684,.495-.918,.909s-.352,.963-.352,1.647v4.646h-1.98Z"/></g><g><path class="cls-1" d="M496.607,327.759v-10.822h-3.907v-1.782h9.886v1.782h-3.908v10.822h-2.07Z"/><path class="cls-1" d="M503.359,327.759v-9.22h1.747v1.747c.228-.564,.549-1.015,.963-1.351s.993-.504,1.737-.504h.937v1.836h-.918c-.433,0-.838,.097-1.216,.289-.378,.191-.684,.495-.918,.909s-.352,.963-.352,1.647v4.646h-1.98Z"/><path class="cls-1" d="M510.58,316.9v-2.07h2.053v2.07h-2.053Zm.036,10.858v-9.22h1.98v9.22h-1.98Z"/><path class="cls-1" d="M519.259,327.849c-1.164,0-1.992-.261-2.484-.783s-.738-1.27-.738-2.242v-4.646h-1.944v-1.639h1.944v-2.719h1.98v2.719h3.007l-.233,1.639h-2.773v4.556c0,.517,.12,.886,.36,1.107,.24,.223,.601,.333,1.08,.333h1.566v1.675h-1.765Z"/><path class="cls-1" d="M526.84,327.993c-.828,0-1.569-.178-2.224-.531-.654-.354-1.174-.874-1.558-1.558-.385-.685-.576-1.507-.576-2.467v-.576c0-.973,.191-1.798,.576-2.477,.384-.678,.903-1.197,1.558-1.558,.654-.359,1.396-.54,2.224-.54h.162c.828,0,1.572,.181,2.232,.54,.66,.36,1.18,.88,1.558,1.558,.378,.679,.567,1.498,.567,2.458v.595c0,.96-.189,1.782-.567,2.467-.378,.684-.897,1.203-1.558,1.558-.66,.354-1.404,.531-2.232,.531h-.162Zm0-1.693h.144c.685,0,1.255-.233,1.711-.702,.456-.468,.685-1.176,.685-2.124v-.667c0-.948-.229-1.653-.685-2.115s-1.026-.693-1.711-.693h-.144c-.673,0-1.236,.231-1.692,.693-.457,.462-.685,1.167-.685,2.115v.667c0,.948,.228,1.656,.685,2.124,.456,.469,1.02,.702,1.692,.702Z"/><path class="cls-1" d="M533.484,327.759v-9.22h1.747v1.387c.288-.504,.681-.903,1.179-1.197s1.09-.441,1.774-.441h.18c1.044,0,1.879,.324,2.503,.973s.937,1.585,.937,2.809v5.69h-1.981v-5.42c0-.756-.161-1.335-.485-1.737s-.816-.604-1.477-.604h-.126c-.385,0-.751,.096-1.099,.288-.349,.192-.631,.486-.847,.882-.216,.396-.324,.9-.324,1.513v5.078h-1.98Z"/><path class="cls-1" d="M549.168,327.759v-12.604h2.071v12.604h-2.071Z"/><path class="cls-1" d="M554.156,327.759v-9.22h1.747v1.387c.288-.504,.681-.903,1.179-1.197s1.09-.441,1.774-.441h.18c1.044,0,1.879,.324,2.503,.973s.937,1.585,.937,2.809v5.69h-1.981v-5.42c0-.756-.161-1.335-.485-1.737s-.816-.604-1.477-.604h-.126c-.385,0-.751,.096-1.099,.288-.349,.192-.631,.486-.847,.882-.216,.396-.324,.9-.324,1.513v5.078h-1.98Z"/><path class="cls-1" d="M565.843,327.759v-7.581h-1.891v-1.639h1.891v-.666c0-1.068,.27-1.894,.811-2.476,.54-.582,1.416-.873,2.629-.873h1.566v1.674h-1.495c-.54,0-.93,.136-1.17,.405-.24,.271-.36,.67-.36,1.197v.738h3.025l-.234,1.639h-2.791v7.581h-1.98Z"/><path class="cls-1" d="M575.872,327.993c-1.345,0-2.393-.394-3.143-1.18s-1.125-1.905-1.125-3.358v-.594c0-1.429,.384-2.548,1.152-3.358,.768-.811,1.807-1.216,3.115-1.216h.162c1.248,0,2.235,.391,2.962,1.171,.726,.78,1.089,1.83,1.089,3.151v1.098h-6.536c.036,.9,.255,1.573,.657,2.017,.402,.444,.957,.667,1.666,.667h.27c.54,0,.987-.093,1.342-.279,.354-.187,.64-.465,.855-.838l1.44,.937c-.324,.553-.799,.988-1.423,1.306-.624,.318-1.362,.478-2.215,.478h-.27Zm-2.305-5.672h4.591v-.127c0-.744-.188-1.311-.566-1.701-.379-.39-.903-.585-1.576-.585h-.144c-.66,0-1.191,.204-1.594,.612s-.64,1.008-.711,1.801Z"/><path class="cls-1" d="M582.138,327.759v-9.22h1.747v1.747c.228-.564,.549-1.015,.963-1.351s.993-.504,1.737-.504h.937v1.836h-.918c-.433,0-.838,.097-1.216,.289-.378,.191-.684,.495-.918,.909s-.352,.963-.352,1.647v4.646h-1.98Z"/><path class="cls-1" d="M592.727,327.993c-1.345,0-2.393-.394-3.143-1.18s-1.125-1.905-1.125-3.358v-.594c0-1.429,.384-2.548,1.152-3.358,.768-.811,1.807-1.216,3.115-1.216h.162c1.248,0,2.235,.391,2.962,1.171,.726,.78,1.089,1.83,1.089,3.151v1.098h-6.536c.036,.9,.255,1.573,.657,2.017,.402,.444,.957,.667,1.666,.667h.27c.54,0,.987-.093,1.342-.279,.354-.187,.64-.465,.855-.838l1.44,.937c-.324,.553-.799,.988-1.423,1.306-.624,.318-1.362,.478-2.215,.478h-.27Zm-2.305-5.672h4.591v-.127c0-.744-.188-1.311-.566-1.701-.379-.39-.903-.585-1.576-.585h-.144c-.66,0-1.191,.204-1.594,.612s-.64,1.008-.711,1.801Z"/><path class="cls-1" d="M598.992,327.759v-9.22h1.747v1.387c.288-.504,.681-.903,1.179-1.197s1.09-.441,1.774-.441h.18c1.044,0,1.879,.324,2.503,.973s.937,1.585,.937,2.809v5.69h-1.981v-5.42c0-.756-.161-1.335-.485-1.737s-.816-.604-1.477-.604h-.126c-.385,0-.751,.096-1.099,.288-.349,.192-.631,.486-.847,.882-.216,.396-.324,.9-.324,1.513v5.078h-1.98Z"/><path class="cls-1" d="M613.686,327.993c-1.344,0-2.41-.394-3.196-1.18s-1.179-1.911-1.179-3.376v-.595c0-.96,.183-1.779,.549-2.458,.366-.678,.879-1.197,1.54-1.558,.66-.359,1.422-.54,2.286-.54h.181c.852,0,1.575,.204,2.17,.612,.594,.408,1.022,.948,1.287,1.621l-1.585,.702c-.18-.372-.423-.669-.729-.892-.307-.222-.688-.333-1.144-.333h-.162c-.709,0-1.288,.234-1.738,.702s-.675,1.171-.675,2.106v.667c0,.972,.219,1.687,.657,2.143s1.023,.684,1.756,.684h.162c.479,0,.882-.104,1.206-.314s.576-.495,.757-.855l1.548,.811c-.264,.601-.702,1.092-1.314,1.477-.612,.384-1.345,.576-2.196,.576h-.181Z"/><path class="cls-1" d="M623.104,327.993c-1.345,0-2.393-.394-3.143-1.18s-1.125-1.905-1.125-3.358v-.594c0-1.429,.384-2.548,1.152-3.358,.768-.811,1.807-1.216,3.115-1.216h.162c1.248,0,2.235,.391,2.962,1.171,.726,.78,1.089,1.83,1.089,3.151v1.098h-6.536c.036,.9,.255,1.573,.657,2.017,.402,.444,.957,.667,1.666,.667h.27c.54,0,.987-.093,1.342-.279,.354-.187,.64-.465,.855-.838l1.44,.937c-.324,.553-.799,.988-1.423,1.306-.624,.318-1.362,.478-2.215,.478h-.27Zm-2.305-5.672h4.591v-.127c0-.744-.188-1.311-.566-1.701-.379-.39-.903-.585-1.576-.585h-.144c-.66,0-1.191,.204-1.594,.612s-.64,1.008-.711,1.801Z"/><path class="cls-1" d="M538.293,349.601c-2.557,0-4.195-.919-4.916-2.755l1.729-.9c.265,.624,.654,1.092,1.171,1.404,.516,.313,1.182,.468,1.999,.468h.216c.864,0,1.53-.152,1.999-.459,.468-.306,.702-.753,.702-1.342v-.197c0-.492-.15-.897-.45-1.216-.301-.318-.769-.52-1.405-.604l-2.124-.324c-2.317-.312-3.476-1.458-3.476-3.438v-.217c0-.708,.189-1.323,.567-1.846,.378-.521,.906-.927,1.584-1.215,.679-.288,1.468-.433,2.368-.433h.252c1.116,0,2.064,.226,2.846,.676,.78,.45,1.338,1.102,1.674,1.953l-1.8,.774c-.409-1.092-1.321-1.639-2.737-1.639h-.216c-.769,0-1.375,.156-1.819,.469-.444,.312-.666,.726-.666,1.242v.216c0,.889,.606,1.429,1.818,1.621l2.125,.306c1.177,.156,2.056,.549,2.638,1.18,.582,.63,.874,1.443,.874,2.439v.217c0,1.14-.412,2.028-1.233,2.664-.823,.637-1.979,.955-3.467,.955h-.252Z"/><path class="cls-1" d="M548.989,349.601c-1.345,0-2.393-.394-3.143-1.18s-1.125-1.905-1.125-3.358v-.594c0-1.429,.384-2.548,1.152-3.358,.768-.811,1.807-1.216,3.115-1.216h.162c1.248,0,2.235,.391,2.962,1.171,.726,.78,1.089,1.83,1.089,3.151v1.098h-6.536c.036,.9,.255,1.573,.657,2.017,.402,.444,.957,.667,1.666,.667h.27c.54,0,.987-.093,1.342-.279,.354-.187,.64-.465,.855-.838l1.44,.937c-.324,.553-.799,.988-1.423,1.306-.624,.318-1.362,.478-2.215,.478h-.27Zm-2.305-5.672h4.591v-.127c0-.744-.188-1.311-.566-1.701-.379-.39-.903-.585-1.576-.585h-.144c-.66,0-1.191,.204-1.594,.612s-.64,1.008-.711,1.801Z"/><path class="cls-1" d="M555.255,349.366v-9.22h1.747v1.747c.228-.564,.549-1.015,.963-1.351s.993-.504,1.737-.504h.937v1.836h-.918c-.433,0-.838,.097-1.216,.289-.378,.191-.684,.495-.918,.909s-.352,.963-.352,1.647v4.646h-1.98Z"/><path class="cls-1" d="M565.267,349.366l-3.565-9.22h2.089l2.395,6.789,2.396-6.789h1.963l-3.548,9.22h-1.729Z"/><path class="cls-1" d="M575.477,349.601c-1.345,0-2.393-.394-3.143-1.18s-1.125-1.905-1.125-3.358v-.594c0-1.429,.384-2.548,1.152-3.358,.768-.811,1.807-1.216,3.115-1.216h.162c1.248,0,2.235,.391,2.962,1.171,.726,.78,1.089,1.83,1.089,3.151v1.098h-6.536c.036,.9,.255,1.573,.657,2.017,.402,.444,.957,.667,1.666,.667h.27c.54,0,.987-.093,1.342-.279,.354-.187,.64-.465,.855-.838l1.44,.937c-.324,.553-.799,.988-1.423,1.306-.624,.318-1.362,.478-2.215,.478h-.27Zm-2.305-5.672h4.591v-.127c0-.744-.188-1.311-.566-1.701-.379-.39-.903-.585-1.576-.585h-.144c-.66,0-1.191,.204-1.594,.612s-.64,1.008-.711,1.801Z"/><path class="cls-1" d="M581.742,349.366v-9.22h1.747v1.747c.228-.564,.549-1.015,.963-1.351s.993-.504,1.737-.504h.937v1.836h-.918c-.433,0-.838,.097-1.216,.289-.378,.191-.684,.495-.918,.909s-.352,.963-.352,1.647v4.646h-1.98Z"/></g><g><path class="cls-1" d="M496.607,398.014v-10.822h-3.907v-1.782h9.886v1.782h-3.908v10.822h-2.07Z"/><path class="cls-1" d="M503.359,398.014v-9.22h1.747v1.747c.228-.564,.549-1.015,.963-1.351s.993-.504,1.737-.504h.937v1.836h-.918c-.433,0-.838,.097-1.216,.289-.378,.191-.684,.495-.918,.909s-.352,.963-.352,1.647v4.646h-1.98Z"/><path class="cls-1" d="M510.58,387.155v-2.07h2.053v2.07h-2.053Zm.036,10.858v-9.22h1.98v9.22h-1.98Z"/><path class="cls-1" d="M519.259,398.104c-1.164,0-1.992-.261-2.484-.783s-.738-1.27-.738-2.242v-4.646h-1.944v-1.639h1.944v-2.719h1.98v2.719h3.007l-.233,1.639h-2.773v4.556c0,.517,.12,.886,.36,1.107,.24,.223,.601,.333,1.08,.333h1.566v1.675h-1.765Z"/><path class="cls-1" d="M526.84,398.248c-.828,0-1.569-.178-2.224-.531-.654-.354-1.174-.874-1.558-1.558-.385-.685-.576-1.507-.576-2.467v-.576c0-.973,.191-1.798,.576-2.477,.384-.678,.903-1.197,1.558-1.558,.654-.359,1.396-.54,2.224-.54h.162c.828,0,1.572,.181,2.232,.54,.66,.36,1.18,.88,1.558,1.558,.378,.679,.567,1.498,.567,2.458v.595c0,.96-.189,1.782-.567,2.467-.378,.684-.897,1.203-1.558,1.558-.66,.354-1.404,.531-2.232,.531h-.162Zm0-1.693h.144c.685,0,1.255-.233,1.711-.702,.456-.468,.685-1.176,.685-2.124v-.667c0-.948-.229-1.653-.685-2.115s-1.026-.693-1.711-.693h-.144c-.673,0-1.236,.231-1.692,.693-.457,.462-.685,1.167-.685,2.115v.667c0,.948,.228,1.656,.685,2.124,.456,.469,1.02,.702,1.692,.702Z"/><path class="cls-1" d="M533.484,398.014v-9.22h1.747v1.387c.288-.504,.681-.903,1.179-1.197s1.09-.441,1.774-.441h.18c1.044,0,1.879,.324,2.503,.973s.937,1.585,.937,2.809v5.69h-1.981v-5.42c0-.756-.161-1.335-.485-1.737s-.816-.604-1.477-.604h-.126c-.385,0-.751,.096-1.099,.288-.349,.192-.631,.486-.847,.882-.216,.396-.324,.9-.324,1.513v5.078h-1.98Z"/><path class="cls-1" d="M549.168,398.014v-12.604h2.071v12.604h-2.071Z"/><path class="cls-1" d="M554.156,398.014v-9.22h1.747v1.387c.288-.504,.681-.903,1.179-1.197s1.09-.441,1.774-.441h.18c1.044,0,1.879,.324,2.503,.973s.937,1.585,.937,2.809v5.69h-1.981v-5.42c0-.756-.161-1.335-.485-1.737s-.816-.604-1.477-.604h-.126c-.385,0-.751,.096-1.099,.288-.349,.192-.631,.486-.847,.882-.216,.396-.324,.9-.324,1.513v5.078h-1.98Z"/><path class="cls-1" d="M565.843,398.014v-7.581h-1.891v-1.639h1.891v-.666c0-1.068,.27-1.894,.811-2.476,.54-.582,1.416-.873,2.629-.873h1.566v1.674h-1.495c-.54,0-.93,.136-1.17,.405-.24,.271-.36,.67-.36,1.197v.738h3.025l-.234,1.639h-2.791v7.581h-1.98Z"/><path class="cls-1" d="M575.872,398.248c-1.345,0-2.393-.394-3.143-1.18s-1.125-1.905-1.125-3.358v-.594c0-1.429,.384-2.548,1.152-3.358,.768-.811,1.807-1.216,3.115-1.216h.162c1.248,0,2.235,.391,2.962,1.171,.726,.78,1.089,1.83,1.089,3.151v1.098h-6.536c.036,.9,.255,1.573,.657,2.017,.402,.444,.957,.667,1.666,.667h.27c.54,0,.987-.093,1.342-.279,.354-.187,.64-.465,.855-.838l1.44,.937c-.324,.553-.799,.988-1.423,1.306-.624,.318-1.362,.478-2.215,.478h-.27Zm-2.305-5.672h4.591v-.127c0-.744-.188-1.311-.566-1.701-.379-.39-.903-.585-1.576-.585h-.144c-.66,0-1.191,.204-1.594,.612s-.64,1.008-.711,1.801Z"/><path class="cls-1" d="M582.138,398.014v-9.22h1.747v1.747c.228-.564,.549-1.015,.963-1.351s.993-.504,1.737-.504h.937v1.836h-.918c-.433,0-.838,.097-1.216,.289-.378,.191-.684,.495-.918,.909s-.352,.963-.352,1.647v4.646h-1.98Z"/><path class="cls-1" d="M592.727,398.248c-1.345,0-2.393-.394-3.143-1.18s-1.125-1.905-1.125-3.358v-.594c0-1.429,.384-2.548,1.152-3.358,.768-.811,1.807-1.216,3.115-1.216h.162c1.248,0,2.235,.391,2.962,1.171,.726,.78,1.089,1.83,1.089,3.151v1.098h-6.536c.036,.9,.255,1.573,.657,2.017,.402,.444,.957,.667,1.666,.667h.27c.54,0,.987-.093,1.342-.279,.354-.187,.64-.465,.855-.838l1.44,.937c-.324,.553-.799,.988-1.423,1.306-.624,.318-1.362,.478-2.215,.478h-.27Zm-2.305-5.672h4.591v-.127c0-.744-.188-1.311-.566-1.701-.379-.39-.903-.585-1.576-.585h-.144c-.66,0-1.191,.204-1.594,.612s-.64,1.008-.711,1.801Z"/><path class="cls-1" d="M598.992,398.014v-9.22h1.747v1.387c.288-.504,.681-.903,1.179-1.197s1.09-.441,1.774-.441h.18c1.044,0,1.879,.324,2.503,.973s.937,1.585,.937,2.809v5.69h-1.981v-5.42c0-.756-.161-1.335-.485-1.737s-.816-.604-1.477-.604h-.126c-.385,0-.751,.096-1.099,.288-.349,.192-.631,.486-.847,.882-.216,.396-.324,.9-.324,1.513v5.078h-1.98Z"/><path class="cls-1" d="M613.686,398.248c-1.344,0-2.41-.394-3.196-1.18s-1.179-1.911-1.179-3.376v-.595c0-.96,.183-1.779,.549-2.458,.366-.678,.879-1.197,1.54-1.558,.66-.359,1.422-.54,2.286-.54h.181c.852,0,1.575,.204,2.17,.612,.594,.408,1.022,.948,1.287,1.621l-1.585,.702c-.18-.372-.423-.669-.729-.892-.307-.222-.688-.333-1.144-.333h-.162c-.709,0-1.288,.234-1.738,.702s-.675,1.171-.675,2.106v.667c0,.972,.219,1.687,.657,2.143s1.023,.684,1.756,.684h.162c.479,0,.882-.104,1.206-.314s.576-.495,.757-.855l1.548,.811c-.264,.601-.702,1.092-1.314,1.477-.612,.384-1.345,.576-2.196,.576h-.181Z"/><path class="cls-1" d="M623.104,398.248c-1.345,0-2.393-.394-3.143-1.18s-1.125-1.905-1.125-3.358v-.594c0-1.429,.384-2.548,1.152-3.358,.768-.811,1.807-1.216,3.115-1.216h.162c1.248,0,2.235,.391,2.962,1.171,.726,.78,1.089,1.83,1.089,3.151v1.098h-6.536c.036,.9,.255,1.573,.657,2.017,.402,.444,.957,.667,1.666,.667h.27c.54,0,.987-.093,1.342-.279,.354-.187,.64-.465,.855-.838l1.44,.937c-.324,.553-.799,.988-1.423,1.306-.624,.318-1.362,.478-2.215,.478h-.27Zm-2.305-5.672h4.591v-.127c0-.744-.188-1.311-.566-1.701-.379-.39-.903-.585-1.576-.585h-.144c-.66,0-1.191,.204-1.594,.612s-.64,1.008-.711,1.801Z"/><path class="cls-1" d="M538.293,419.855c-2.557,0-4.195-.919-4.916-2.755l1.729-.9c.265,.624,.654,1.092,1.171,1.404,.516,.313,1.182,.468,1.999,.468h.216c.864,0,1.53-.152,1.999-.459,.468-.306,.702-.753,.702-1.342v-.197c0-.492-.15-.897-.45-1.216-.301-.318-.769-.52-1.405-.604l-2.124-.324c-2.317-.312-3.476-1.458-3.476-3.438v-.217c0-.708,.189-1.323,.567-1.846,.378-.521,.906-.927,1.584-1.215,.679-.288,1.468-.433,2.368-.433h.252c1.116,0,2.064,.226,2.846,.676,.78,.45,1.338,1.102,1.674,1.953l-1.8,.774c-.409-1.092-1.321-1.639-2.737-1.639h-.216c-.769,0-1.375,.156-1.819,.469-.444,.312-.666,.726-.666,1.242v.216c0,.889,.606,1.429,1.818,1.621l2.125,.306c1.177,.156,2.056,.549,2.638,1.18,.582,.63,.874,1.443,.874,2.439v.217c0,1.14-.412,2.028-1.233,2.664-.823,.637-1.979,.955-3.467,.955h-.252Z"/><path class="cls-1" d="M548.989,419.855c-1.345,0-2.393-.394-3.143-1.18s-1.125-1.905-1.125-3.358v-.594c0-1.429,.384-2.548,1.152-3.358,.768-.811,1.807-1.216,3.115-1.216h.162c1.248,0,2.235,.391,2.962,1.171,.726,.78,1.089,1.83,1.089,3.151v1.098h-6.536c.036,.9,.255,1.573,.657,2.017,.402,.444,.957,.667,1.666,.667h.27c.54,0,.987-.093,1.342-.279,.354-.187,.64-.465,.855-.838l1.44,.937c-.324,.553-.799,.988-1.423,1.306-.624,.318-1.362,.478-2.215,.478h-.27Zm-2.305-5.672h4.591v-.127c0-.744-.188-1.311-.566-1.701-.379-.39-.903-.585-1.576-.585h-.144c-.66,0-1.191,.204-1.594,.612s-.64,1.008-.711,1.801Z"/><path class="cls-1" d="M555.255,419.621v-9.22h1.747v1.747c.228-.564,.549-1.015,.963-1.351s.993-.504,1.737-.504h.937v1.836h-.918c-.433,0-.838,.097-1.216,.289-.378,.191-.684,.495-.918,.909s-.352,.963-.352,1.647v4.646h-1.98Z"/><path class="cls-1" d="M565.267,419.621l-3.565-9.22h2.089l2.395,6.789,2.396-6.789h1.963l-3.548,9.22h-1.729Z"/><path class="cls-1" d="M575.477,419.855c-1.345,0-2.393-.394-3.143-1.18s-1.125-1.905-1.125-3.358v-.594c0-1.429,.384-2.548,1.152-3.358,.768-.811,1.807-1.216,3.115-1.216h.162c1.248,0,2.235,.391,2.962,1.171,.726,.78,1.089,1.83,1.089,3.151v1.098h-6.536c.036,.9,.255,1.573,.657,2.017,.402,.444,.957,.667,1.666,.667h.27c.54,0,.987-.093,1.342-.279,.354-.187,.64-.465,.855-.838l1.44,.937c-.324,.553-.799,.988-1.423,1.306-.624,.318-1.362,.478-2.215,.478h-.27Zm-2.305-5.672h4.591v-.127c0-.744-.188-1.311-.566-1.701-.379-.39-.903-.585-1.576-.585h-.144c-.66,0-1.191,.204-1.594,.612s-.64,1.008-.711,1.801Z"/><path class="cls-1" d="M581.742,419.621v-9.22h1.747v1.747c.228-.564,.549-1.015,.963-1.351s.993-.504,1.737-.504h.937v1.836h-.918c-.433,0-.838,.097-1.216,.289-.378,.191-.684,.495-.918,.909s-.352,.963-.352,1.647v4.646h-1.98Z"/></g><g class="cls-4"><g><line class="cls-7" x1="668.249" y1="293.587" x2="717.118" y2="293.587"/><polygon class="cls-2" points="670.875 302.562 655.332 293.587 670.875 284.611 670.875 302.562"/></g></g><g class="cls-4"><g><line class="cls-7" x1="413.629" y1="293.587" x2="449.58" y2="293.587"/><polygon class="cls-2" points="416.255 302.562 400.711 293.587 416.255 284.611 416.255 302.562"/><polygon class="cls-2" points="446.954 302.562 462.498 293.587 446.954 284.611 446.954 302.562"/></g></g><rect class="cls-2" x="224.621" y="341.566" width="163.652" height="59.027"/><rect class="cls-2" x="224.621" y="193.924" width="163.652" height="59.027"/><g><path class="cls-1" d="M238.811,218.933v-12.604h8.085v1.747h-6.014v3.889h4.844l-.234,1.765h-4.61v5.204h-2.071Z"/><path class="cls-1" d="M248.138,218.933v-9.219h1.747v1.747c.228-.564,.549-1.014,.963-1.351,.414-.336,.993-.504,1.738-.504h.936v1.837h-.918c-.432,0-.837,.096-1.216,.288-.378,.192-.684,.495-.918,.909-.234,.415-.351,.963-.351,1.648v4.646h-1.981Z"/><path class="cls-1" d="M258.816,219.167c-.829,0-1.57-.177-2.224-.531-.654-.354-1.173-.874-1.557-1.558-.385-.685-.577-1.506-.577-2.467v-.576c0-.972,.192-1.797,.577-2.476,.384-.678,.903-1.198,1.557-1.558,.654-.36,1.396-.541,2.224-.541h.162c.828,0,1.572,.18,2.233,.541,.66,.36,1.179,.879,1.557,1.558,.378,.678,.567,1.498,.567,2.458v.594c0,.961-.189,1.783-.567,2.467-.378,.684-.897,1.204-1.557,1.558-.661,.354-1.405,.531-2.233,.531h-.162Zm0-1.692h.144c.684,0,1.254-.234,1.71-.702s.685-1.176,.685-2.125v-.666c0-.948-.229-1.654-.685-2.116-.456-.462-1.026-.693-1.71-.693h-.144c-.672,0-1.237,.231-1.693,.693-.456,.462-.684,1.167-.684,2.116v.666c0,.949,.228,1.657,.684,2.125s1.021,.702,1.693,.702Z"/><path class="cls-1" d="M265.46,218.933v-9.219h1.747v1.386c.288-.504,.681-.903,1.18-1.197,.498-.294,1.089-.441,1.773-.441h.18c1.044,0,1.878,.324,2.503,.973,.624,.648,.936,1.584,.936,2.809v5.69h-1.98v-5.42c0-.756-.162-1.335-.486-1.738-.324-.402-.816-.603-1.477-.603h-.126c-.384,0-.75,.096-1.098,.288-.349,.192-.63,.486-.847,.882-.216,.396-.324,.9-.324,1.513v5.078h-1.981Z"/><path class="cls-1" d="M280.262,219.022c-1.165,0-1.993-.261-2.485-.783-.492-.522-.738-1.27-.738-2.242v-4.646h-1.945v-1.639h1.945v-2.719h1.98v2.719h3.007l-.234,1.639h-2.773v4.556c0,.516,.12,.885,.36,1.107s.6,.333,1.081,.333h1.566v1.674h-1.765Z"/><path class="cls-1" d="M283.629,214.593v-1.855h5.293v1.855h-5.293Z"/><path class="cls-1" d="M291.48,218.933v-12.604h8.103v1.747h-6.032v3.601h4.898l-.252,1.747h-4.646v3.764h6.122v1.747h-8.193Z"/><path class="cls-1" d="M301.959,218.933v-9.219h1.747v1.386c.288-.504,.681-.903,1.18-1.197,.498-.294,1.089-.441,1.773-.441h.18c1.044,0,1.878,.324,2.503,.973,.624,.648,.936,1.584,.936,2.809v5.69h-1.98v-5.42c0-.756-.162-1.335-.486-1.738-.324-.402-.816-.603-1.477-.603h-.126c-.384,0-.75,.096-1.098,.288-.349,.192-.63,.486-.847,.882-.216,.396-.324,.9-.324,1.513v5.078h-1.981Z"/><path class="cls-1" d="M316.185,219.167c-.756,0-1.429-.174-2.017-.522-.588-.348-1.051-.861-1.387-1.54-.336-.678-.504-1.509-.504-2.494v-.612c0-.973,.168-1.795,.504-2.467,.336-.672,.798-1.185,1.387-1.54,.588-.354,1.26-.531,2.017-.531h.126c.612,0,1.155,.117,1.629,.352,.474,.234,.861,.567,1.162,.999v-5.024h1.981v13.145h-1.747v-1.369c-.3,.504-.702,.897-1.206,1.18-.504,.282-1.111,.423-1.819,.423h-.126Zm.45-1.692h.144c.408,0,.789-.099,1.144-.297,.354-.198,.642-.507,.864-.927,.222-.42,.333-.972,.333-1.656v-.559c0-.672-.111-1.218-.333-1.639-.223-.42-.511-.729-.864-.927-.354-.198-.736-.297-1.144-.297h-.144c-.685,0-1.251,.228-1.702,.684-.45,.457-.675,1.17-.675,2.143v.63c0,.973,.225,1.69,.675,2.152,.45,.462,1.017,.693,1.702,.693Z"/><path class="cls-1" d="M333.561,219.167c-1.813,0-3.196-.54-4.15-1.621-.955-1.08-1.432-2.599-1.432-4.556v-.756c0-1.261,.222-2.35,.666-3.269,.444-.918,1.083-1.626,1.918-2.125,.834-.498,1.833-.748,2.998-.748h.18c1.212,0,2.227,.273,3.043,.819,.816,.546,1.393,1.318,1.729,2.314l-1.909,.667c-.204-.672-.555-1.173-1.053-1.504-.498-.33-1.102-.495-1.81-.495h-.162c-1.104,0-1.969,.366-2.593,1.099-.625,.732-.937,1.8-.937,3.205v.846c0,1.44,.303,2.521,.909,3.241s1.479,1.081,2.62,1.081h.162c.732,0,1.356-.162,1.873-.486s.876-.811,1.081-1.458l1.873,.72c-.348,.96-.939,1.705-1.773,2.233-.834,.528-1.852,.792-3.052,.792h-.18Z"/><path class="cls-1" d="M340.547,218.933v-13.145h1.981v13.145h-1.981Z"/><path class="cls-1" d="M345.103,208.075v-2.071h2.053v2.071h-2.053Zm.036,10.858v-9.219h1.981v9.219h-1.981Z"/><path class="cls-1" d="M353.493,219.167c-1.344,0-2.392-.393-3.142-1.179-.75-.786-1.125-1.906-1.125-3.358v-.594c0-1.428,.384-2.548,1.153-3.358,.768-.811,1.806-1.216,3.115-1.216h.162c1.249,0,2.236,.391,2.962,1.17,.726,.781,1.089,1.831,1.089,3.151v1.099h-6.537c.036,.9,.255,1.573,.657,2.017,.402,.444,.958,.666,1.666,.666h.271c.54,0,.987-.093,1.341-.279s.639-.465,.855-.837l1.44,.937c-.324,.552-.798,.987-1.422,1.305-.625,.318-1.363,.477-2.215,.477h-.271Zm-2.305-5.672h4.592v-.126c0-.744-.189-1.312-.567-1.702-.378-.39-.903-.585-1.576-.585h-.144c-.66,0-1.191,.205-1.593,.612-.402,.408-.639,1.008-.711,1.801Z"/><path class="cls-1" d="M359.76,218.933v-9.219h1.747v1.386c.288-.504,.681-.903,1.18-1.197,.498-.294,1.089-.441,1.773-.441h.18c1.044,0,1.878,.324,2.503,.973,.624,.648,.936,1.584,.936,2.809v5.69h-1.98v-5.42c0-.756-.162-1.335-.486-1.738-.324-.402-.816-.603-1.477-.603h-.126c-.384,0-.75,.096-1.098,.288-.349,.192-.63,.486-.847,.882-.216,.396-.324,.9-.324,1.513v5.078h-1.981Z"/><path class="cls-1" d="M374.561,219.022c-1.165,0-1.993-.261-2.485-.783-.492-.522-.738-1.27-.738-2.242v-4.646h-1.945v-1.639h1.945v-2.719h1.98v2.719h3.007l-.234,1.639h-2.773v4.556c0,.516,.12,.885,.36,1.107s.6,.333,1.081,.333h1.566v1.674h-1.765Z"/><path class="cls-1" d="M254.593,240.541l4.952-12.604h1.836l4.97,12.604h-2.233l-1.062-2.827h-5.312l-1.044,2.827h-2.107Zm3.799-4.538h4.034l-2.017-5.42-2.017,5.42Z"/><path class="cls-1" d="M267.918,244.143v-12.822h1.747v1.351c.288-.504,.687-.896,1.198-1.179,.51-.282,1.119-.424,1.828-.424h.108c.756,0,1.428,.178,2.017,.531,.588,.354,1.053,.871,1.396,1.549,.342,.679,.513,1.51,.513,2.494v.594c0,.973-.171,1.798-.513,2.476-.342,.679-.808,1.192-1.396,1.54-.588,.348-1.26,.522-2.017,.522h-.108c-.612,0-1.156-.114-1.63-.343-.474-.228-.861-.552-1.161-.972v4.682h-1.981Zm4.286-5.061h.144c.684,0,1.254-.228,1.71-.684s.685-1.177,.685-2.161v-.612c0-.984-.229-1.704-.685-2.16s-1.026-.685-1.71-.685h-.144c-.408,0-.79,.096-1.144,.288s-.642,.498-.864,.918c-.222,.421-.333,.973-.333,1.657v.558c0,.673,.111,1.222,.333,1.647,.222,.427,.513,.738,.874,.937,.36,.198,.738,.297,1.134,.297Z"/><path class="cls-1" d="M278.83,244.143v-12.822h1.747v1.351c.288-.504,.687-.896,1.198-1.179,.51-.282,1.119-.424,1.828-.424h.108c.756,0,1.428,.178,2.017,.531,.588,.354,1.053,.871,1.396,1.549,.342,.679,.513,1.51,.513,2.494v.594c0,.973-.171,1.798-.513,2.476-.342,.679-.808,1.192-1.396,1.54-.588,.348-1.26,.522-2.017,.522h-.108c-.612,0-1.156-.114-1.63-.343-.474-.228-.861-.552-1.161-.972v4.682h-1.981Zm4.286-5.061h.144c.684,0,1.254-.228,1.71-.684s.685-1.177,.685-2.161v-.612c0-.984-.229-1.704-.685-2.16s-1.026-.685-1.71-.685h-.144c-.408,0-.79,.096-1.144,.288s-.642,.498-.864,.918c-.222,.421-.333,.973-.333,1.657v.558c0,.673,.111,1.222,.333,1.647,.222,.427,.513,.738,.874,.937,.36,.198,.738,.297,1.134,.297Z"/><path class="cls-1" d="M289.742,240.541v-13.145h1.981v13.145h-1.981Z"/><path class="cls-1" d="M294.297,229.682v-2.07h2.053v2.07h-2.053Zm.036,10.858v-9.22h1.981v9.22h-1.981Z"/><path class="cls-1" d="M302.796,240.775c-1.345,0-2.41-.394-3.196-1.18-.787-.786-1.18-1.911-1.18-3.376v-.595c0-.96,.183-1.779,.549-2.458,.366-.678,.879-1.197,1.54-1.558,.66-.359,1.423-.54,2.287-.54h.18c.853,0,1.576,.204,2.17,.612s1.023,.948,1.288,1.621l-1.584,.702c-.18-.372-.423-.669-.729-.892-.306-.222-.687-.333-1.144-.333h-.162c-.708,0-1.288,.234-1.738,.702s-.675,1.171-.675,2.106v.667c0,.972,.219,1.687,.657,2.143,.438,.456,1.023,.684,1.756,.684h.162c.48,0,.882-.104,1.207-.314s.576-.495,.756-.855l1.549,.811c-.264,.601-.703,1.092-1.314,1.477-.612,.384-1.345,.576-2.197,.576h-.18Z"/><path class="cls-1" d="M310.971,240.775c-.984,0-1.747-.243-2.287-.729-.54-.486-.81-1.167-.81-2.044,0-.756,.237-1.374,.711-1.854,.474-.48,1.167-.78,2.08-.9l3.259-.433v-.071c0-1.369-.612-2.053-1.837-2.053h-.198c-.517,0-.945,.093-1.288,.279-.342,.186-.621,.501-.837,.945l-1.53-.793c.276-.636,.729-1.137,1.359-1.503,.63-.366,1.396-.55,2.296-.55h.27c1.224,0,2.154,.31,2.791,.928,.636,.618,.954,1.521,.954,2.71v5.834h-1.747v-1.404c-.276,.504-.684,.903-1.224,1.197-.541,.294-1.153,.441-1.837,.441h-.126Zm2.953-4.574l-2.449,.36c-.624,.084-1.06,.223-1.305,.414-.246,.192-.369,.492-.369,.9s.141,.729,.423,.964c.282,.233,.681,.351,1.198,.351h.18c.708,0,1.272-.219,1.692-.657,.42-.438,.63-1.023,.63-1.756v-.576Z"/><path class="cls-1" d="M322.261,240.63c-1.165,0-1.993-.261-2.485-.783s-.738-1.27-.738-2.242v-4.646h-1.945v-1.639h1.945v-2.719h1.98v2.719h3.007l-.234,1.639h-2.773v4.556c0,.517,.12,.886,.36,1.107,.24,.223,.6,.333,1.081,.333h1.566v1.675h-1.765Z"/><path class="cls-1" d="M325.952,229.682v-2.07h2.053v2.07h-2.053Zm.036,10.858v-9.22h1.981v9.22h-1.981Z"/><path class="cls-1" d="M334.433,240.775c-.829,0-1.57-.178-2.224-.531-.654-.354-1.173-.874-1.557-1.558-.385-.685-.577-1.507-.577-2.467v-.576c0-.973,.192-1.798,.577-2.477,.384-.678,.903-1.197,1.557-1.558,.654-.359,1.396-.54,2.224-.54h.162c.828,0,1.572,.181,2.233,.54,.66,.36,1.179,.88,1.557,1.558,.378,.679,.567,1.498,.567,2.458v.595c0,.96-.189,1.782-.567,2.467-.378,.684-.897,1.203-1.557,1.558-.661,.354-1.405,.531-2.233,.531h-.162Zm0-1.693h.144c.684,0,1.254-.233,1.71-.702,.456-.468,.685-1.176,.685-2.124v-.667c0-.948-.229-1.653-.685-2.115s-1.026-.693-1.71-.693h-.144c-.672,0-1.237,.231-1.693,.693s-.684,1.167-.684,2.115v.667c0,.948,.228,1.656,.684,2.124,.456,.469,1.021,.702,1.693,.702Z"/><path class="cls-1" d="M341.077,240.541v-9.22h1.747v1.387c.288-.504,.681-.903,1.18-1.197,.498-.294,1.089-.441,1.773-.441h.18c1.044,0,1.878,.324,2.503,.973,.624,.648,.936,1.585,.936,2.809v5.69h-1.98v-5.42c0-.756-.162-1.335-.486-1.737s-.816-.604-1.477-.604h-.126c-.384,0-.75,.096-1.098,.288-.349,.192-.63,.486-.847,.882-.216,.396-.324,.9-.324,1.513v5.078h-1.981Z"/><path class="cls-1" d="M355.23,240.775c-2.088,0-3.421-.702-3.997-2.107l1.548-.792c.204,.433,.501,.75,.891,.954s.916,.307,1.576,.307h.216c1.236,0,1.854-.366,1.854-1.099v-.072c0-.624-.39-.99-1.17-1.099l-1.963-.27c-.852-.12-1.509-.399-1.972-.837-.462-.438-.693-1.023-.693-1.756v-.198c0-.828,.324-1.491,.972-1.99,.648-.498,1.513-.747,2.593-.747h.252c.888,0,1.65,.181,2.287,.54,.636,.36,1.086,.858,1.351,1.495l-1.584,.702c-.324-.732-1.015-1.099-2.071-1.099h-.216c-.528,0-.939,.097-1.233,.288-.294,.192-.441,.456-.441,.792v.091c0,.276,.087,.495,.261,.657s.465,.272,.874,.333l1.999,.27c.853,.12,1.51,.418,1.972,.892,.462,.475,.693,1.084,.693,1.828v.197c0,.889-.318,1.564-.954,2.026-.637,.462-1.567,.693-2.791,.693h-.252Z"/></g><g><path class="cls-1" d="M238.811,366.271v-12.604h8.085v1.746h-6.014v3.89h4.844l-.234,1.765h-4.61v5.204h-2.071Z"/><path class="cls-1" d="M248.138,366.271v-9.22h1.747v1.747c.228-.564,.549-1.015,.963-1.351s.993-.504,1.738-.504h.936v1.836h-.918c-.432,0-.837,.097-1.216,.289-.378,.191-.684,.495-.918,.909-.234,.414-.351,.963-.351,1.647v4.646h-1.981Z"/><path class="cls-1" d="M258.816,366.506c-.829,0-1.57-.178-2.224-.531-.654-.354-1.173-.874-1.557-1.558-.385-.685-.577-1.507-.577-2.467v-.576c0-.973,.192-1.798,.577-2.477,.384-.678,.903-1.197,1.557-1.558,.654-.359,1.396-.54,2.224-.54h.162c.828,0,1.572,.181,2.233,.54,.66,.36,1.179,.88,1.557,1.558,.378,.679,.567,1.498,.567,2.458v.595c0,.96-.189,1.782-.567,2.467-.378,.684-.897,1.203-1.557,1.558-.661,.354-1.405,.531-2.233,.531h-.162Zm0-1.693h.144c.684,0,1.254-.233,1.71-.702,.456-.468,.685-1.176,.685-2.124v-.667c0-.948-.229-1.653-.685-2.115s-1.026-.693-1.71-.693h-.144c-.672,0-1.237,.231-1.693,.693s-.684,1.167-.684,2.115v.667c0,.948,.228,1.656,.684,2.124,.456,.469,1.021,.702,1.693,.702Z"/><path class="cls-1" d="M265.46,366.271v-9.22h1.747v1.387c.288-.504,.681-.903,1.18-1.197,.498-.294,1.089-.441,1.773-.441h.18c1.044,0,1.878,.324,2.503,.973,.624,.648,.936,1.585,.936,2.809v5.69h-1.98v-5.42c0-.756-.162-1.335-.486-1.737s-.816-.604-1.477-.604h-.126c-.384,0-.75,.096-1.098,.288-.349,.192-.63,.486-.847,.882-.216,.396-.324,.9-.324,1.513v5.078h-1.981Z"/><path class="cls-1" d="M280.262,366.361c-1.165,0-1.993-.261-2.485-.783s-.738-1.27-.738-2.242v-4.646h-1.945v-1.639h1.945v-2.719h1.98v2.719h3.007l-.234,1.639h-2.773v4.556c0,.517,.12,.886,.36,1.107,.24,.223,.6,.333,1.081,.333h1.566v1.675h-1.765Z"/><path class="cls-1" d="M283.629,361.932v-1.854h5.293v1.854h-5.293Z"/><path class="cls-1" d="M291.48,366.271v-12.604h8.103v1.746h-6.032v3.602h4.898l-.252,1.747h-4.646v3.763h6.122v1.747h-8.193Z"/><path class="cls-1" d="M301.959,366.271v-9.22h1.747v1.387c.288-.504,.681-.903,1.18-1.197,.498-.294,1.089-.441,1.773-.441h.18c1.044,0,1.878,.324,2.503,.973,.624,.648,.936,1.585,.936,2.809v5.69h-1.98v-5.42c0-.756-.162-1.335-.486-1.737s-.816-.604-1.477-.604h-.126c-.384,0-.75,.096-1.098,.288-.349,.192-.63,.486-.847,.882-.216,.396-.324,.9-.324,1.513v5.078h-1.981Z"/><path class="cls-1" d="M316.185,366.506c-.756,0-1.429-.175-2.017-.522-.588-.348-1.051-.861-1.387-1.54-.336-.678-.504-1.509-.504-2.493v-.612c0-.973,.168-1.795,.504-2.467,.336-.673,.798-1.186,1.387-1.54,.588-.354,1.26-.531,2.017-.531h.126c.612,0,1.155,.117,1.629,.352,.474,.233,.861,.567,1.162,.999v-5.023h1.981v13.145h-1.747v-1.368c-.3,.504-.702,.897-1.206,1.179-.504,.282-1.111,.424-1.819,.424h-.126Zm.45-1.693h.144c.408,0,.789-.099,1.144-.297,.354-.198,.642-.507,.864-.927,.222-.421,.333-.973,.333-1.657v-.558c0-.673-.111-1.219-.333-1.639-.223-.42-.511-.729-.864-.928-.354-.198-.736-.297-1.144-.297h-.144c-.685,0-1.251,.229-1.702,.685s-.675,1.17-.675,2.143v.63c0,.973,.225,1.69,.675,2.152s1.017,.692,1.702,.692Z"/><path class="cls-1" d="M333.561,366.506c-1.813,0-3.196-.54-4.15-1.621-.955-1.08-1.432-2.599-1.432-4.556v-.756c0-1.261,.222-2.35,.666-3.269,.444-.918,1.083-1.626,1.918-2.125,.834-.498,1.833-.747,2.998-.747h.18c1.212,0,2.227,.273,3.043,.819,.816,.547,1.393,1.317,1.729,2.314l-1.909,.666c-.204-.673-.555-1.174-1.053-1.504s-1.102-.495-1.81-.495h-.162c-1.104,0-1.969,.366-2.593,1.099-.625,.732-.937,1.801-.937,3.205v.847c0,1.44,.303,2.521,.909,3.241,.606,.72,1.479,1.08,2.62,1.08h.162c.732,0,1.356-.162,1.873-.486s.876-.811,1.081-1.459l1.873,.721c-.348,.961-.939,1.705-1.773,2.232-.834,.528-1.852,.793-3.052,.793h-.18Z"/><path class="cls-1" d="M340.547,366.271v-13.145h1.981v13.145h-1.981Z"/><path class="cls-1" d="M345.103,355.413v-2.07h2.053v2.07h-2.053Zm.036,10.858v-9.22h1.981v9.22h-1.981Z"/><path class="cls-1" d="M353.493,366.506c-1.344,0-2.392-.394-3.142-1.18-.75-.786-1.125-1.905-1.125-3.358v-.594c0-1.429,.384-2.548,1.153-3.358,.768-.811,1.806-1.216,3.115-1.216h.162c1.249,0,2.236,.391,2.962,1.171,.726,.78,1.089,1.83,1.089,3.151v1.098h-6.537c.036,.9,.255,1.573,.657,2.017,.402,.444,.958,.667,1.666,.667h.271c.54,0,.987-.093,1.341-.279s.639-.465,.855-.838l1.44,.937c-.324,.553-.798,.988-1.422,1.306-.625,.318-1.363,.478-2.215,.478h-.271Zm-2.305-5.672h4.592v-.127c0-.744-.189-1.311-.567-1.701-.378-.39-.903-.585-1.576-.585h-.144c-.66,0-1.191,.204-1.593,.612-.402,.408-.639,1.008-.711,1.801Z"/><path class="cls-1" d="M359.76,366.271v-9.22h1.747v1.387c.288-.504,.681-.903,1.18-1.197,.498-.294,1.089-.441,1.773-.441h.18c1.044,0,1.878,.324,2.503,.973,.624,.648,.936,1.585,.936,2.809v5.69h-1.98v-5.42c0-.756-.162-1.335-.486-1.737s-.816-.604-1.477-.604h-.126c-.384,0-.75,.096-1.098,.288-.349,.192-.63,.486-.847,.882-.216,.396-.324,.9-.324,1.513v5.078h-1.981Z"/><path class="cls-1" d="M374.561,366.361c-1.165,0-1.993-.261-2.485-.783s-.738-1.27-.738-2.242v-4.646h-1.945v-1.639h1.945v-2.719h1.98v2.719h3.007l-.234,1.639h-2.773v4.556c0,.517,.12,.886,.36,1.107,.24,.223,.6,.333,1.081,.333h1.566v1.675h-1.765Z"/><path class="cls-1" d="M254.593,387.879l4.952-12.604h1.836l4.97,12.604h-2.233l-1.062-2.827h-5.312l-1.044,2.827h-2.107Zm3.799-4.538h4.034l-2.017-5.42-2.017,5.42Z"/><path class="cls-1" d="M267.918,391.48v-12.821h1.747v1.351c.288-.504,.687-.896,1.198-1.179,.51-.282,1.119-.424,1.828-.424h.108c.756,0,1.428,.178,2.017,.531,.588,.354,1.053,.871,1.396,1.549,.342,.679,.513,1.51,.513,2.494v.594c0,.973-.171,1.798-.513,2.476-.342,.679-.808,1.192-1.396,1.54-.588,.348-1.26,.522-2.017,.522h-.108c-.612,0-1.156-.114-1.63-.343-.474-.228-.861-.552-1.161-.972v4.682h-1.981Zm4.286-5.061h.144c.684,0,1.254-.228,1.71-.684s.685-1.177,.685-2.161v-.612c0-.984-.229-1.704-.685-2.16s-1.026-.685-1.71-.685h-.144c-.408,0-.79,.096-1.144,.288s-.642,.498-.864,.918c-.222,.421-.333,.973-.333,1.657v.558c0,.673,.111,1.222,.333,1.647,.222,.427,.513,.738,.874,.937,.36,.198,.738,.297,1.134,.297Z"/><path class="cls-1" d="M278.83,391.48v-12.821h1.747v1.351c.288-.504,.687-.896,1.198-1.179,.51-.282,1.119-.424,1.828-.424h.108c.756,0,1.428,.178,2.017,.531,.588,.354,1.053,.871,1.396,1.549,.342,.679,.513,1.51,.513,2.494v.594c0,.973-.171,1.798-.513,2.476-.342,.679-.808,1.192-1.396,1.54-.588,.348-1.26,.522-2.017,.522h-.108c-.612,0-1.156-.114-1.63-.343-.474-.228-.861-.552-1.161-.972v4.682h-1.981Zm4.286-5.061h.144c.684,0,1.254-.228,1.71-.684s.685-1.177,.685-2.161v-.612c0-.984-.229-1.704-.685-2.16s-1.026-.685-1.71-.685h-.144c-.408,0-.79,.096-1.144,.288s-.642,.498-.864,.918c-.222,.421-.333,.973-.333,1.657v.558c0,.673,.111,1.222,.333,1.647,.222,.427,.513,.738,.874,.937,.36,.198,.738,.297,1.134,.297Z"/><path class="cls-1" d="M289.742,387.879v-13.145h1.981v13.145h-1.981Z"/><path class="cls-1" d="M294.297,377.021v-2.07h2.053v2.07h-2.053Zm.036,10.858v-9.22h1.981v9.22h-1.981Z"/><path class="cls-1" d="M302.796,388.113c-1.345,0-2.41-.394-3.196-1.18-.787-.786-1.18-1.911-1.18-3.376v-.595c0-.96,.183-1.779,.549-2.458,.366-.678,.879-1.197,1.54-1.558,.66-.359,1.423-.54,2.287-.54h.18c.853,0,1.576,.204,2.17,.612s1.023,.948,1.288,1.621l-1.584,.702c-.18-.372-.423-.669-.729-.892-.306-.222-.687-.333-1.144-.333h-.162c-.708,0-1.288,.234-1.738,.702s-.675,1.171-.675,2.106v.667c0,.972,.219,1.687,.657,2.143,.438,.456,1.023,.684,1.756,.684h.162c.48,0,.882-.104,1.207-.314s.576-.495,.756-.855l1.549,.811c-.264,.601-.703,1.092-1.314,1.477-.612,.384-1.345,.576-2.197,.576h-.18Z"/><path class="cls-1" d="M310.971,388.113c-.984,0-1.747-.243-2.287-.729-.54-.486-.81-1.167-.81-2.044,0-.756,.237-1.374,.711-1.854,.474-.48,1.167-.78,2.08-.9l3.259-.433v-.071c0-1.369-.612-2.053-1.837-2.053h-.198c-.517,0-.945,.093-1.288,.279-.342,.186-.621,.501-.837,.945l-1.53-.793c.276-.636,.729-1.137,1.359-1.503,.63-.366,1.396-.55,2.296-.55h.27c1.224,0,2.154,.31,2.791,.928,.636,.618,.954,1.521,.954,2.71v5.834h-1.747v-1.404c-.276,.504-.684,.903-1.224,1.197-.541,.294-1.153,.441-1.837,.441h-.126Zm2.953-4.574l-2.449,.36c-.624,.084-1.06,.223-1.305,.414-.246,.192-.369,.492-.369,.9s.141,.729,.423,.964c.282,.233,.681,.351,1.198,.351h.18c.708,0,1.272-.219,1.692-.657,.42-.438,.63-1.023,.63-1.756v-.576Z"/><path class="cls-1" d="M322.261,387.969c-1.165,0-1.993-.261-2.485-.783s-.738-1.27-.738-2.242v-4.646h-1.945v-1.639h1.945v-2.719h1.98v2.719h3.007l-.234,1.639h-2.773v4.556c0,.517,.12,.886,.36,1.107,.24,.223,.6,.333,1.081,.333h1.566v1.675h-1.765Z"/><path class="cls-1" d="M325.952,377.021v-2.07h2.053v2.07h-2.053Zm.036,10.858v-9.22h1.981v9.22h-1.981Z"/><path class="cls-1" d="M334.433,388.113c-.829,0-1.57-.178-2.224-.531-.654-.354-1.173-.874-1.557-1.558-.385-.685-.577-1.507-.577-2.467v-.576c0-.973,.192-1.798,.577-2.477,.384-.678,.903-1.197,1.557-1.558,.654-.359,1.396-.54,2.224-.54h.162c.828,0,1.572,.181,2.233,.54,.66,.36,1.179,.88,1.557,1.558,.378,.679,.567,1.498,.567,2.458v.595c0,.96-.189,1.782-.567,2.467-.378,.684-.897,1.203-1.557,1.558-.661,.354-1.405,.531-2.233,.531h-.162Zm0-1.693h.144c.684,0,1.254-.233,1.71-.702,.456-.468,.685-1.176,.685-2.124v-.667c0-.948-.229-1.653-.685-2.115s-1.026-.693-1.71-.693h-.144c-.672,0-1.237,.231-1.693,.693s-.684,1.167-.684,2.115v.667c0,.948,.228,1.656,.684,2.124,.456,.469,1.021,.702,1.693,.702Z"/><path class="cls-1" d="M341.077,387.879v-9.22h1.747v1.387c.288-.504,.681-.903,1.18-1.197,.498-.294,1.089-.441,1.773-.441h.18c1.044,0,1.878,.324,2.503,.973,.624,.648,.936,1.585,.936,2.809v5.69h-1.98v-5.42c0-.756-.162-1.335-.486-1.737s-.816-.604-1.477-.604h-.126c-.384,0-.75,.096-1.098,.288-.349,.192-.63,.486-.847,.882-.216,.396-.324,.9-.324,1.513v5.078h-1.981Z"/><path class="cls-1" d="M355.23,388.113c-2.088,0-3.421-.702-3.997-2.107l1.548-.792c.204,.433,.501,.75,.891,.954s.916,.307,1.576,.307h.216c1.236,0,1.854-.366,1.854-1.099v-.072c0-.624-.39-.99-1.17-1.099l-1.963-.27c-.852-.12-1.509-.399-1.972-.837-.462-.438-.693-1.023-.693-1.756v-.198c0-.828,.324-1.491,.972-1.99,.648-.498,1.513-.747,2.593-.747h.252c.888,0,1.65,.181,2.287,.54,.636,.36,1.086,.858,1.351,1.495l-1.584,.702c-.324-.732-1.015-1.099-2.071-1.099h-.216c-.528,0-.939,.097-1.233,.288-.294,.192-.441,.456-.441,.792v.091c0,.276,.087,.495,.261,.657s.465,.272,.874,.333l1.999,.27c.853,.12,1.51,.418,1.972,.892,.462,.475,.693,1.084,.693,1.828v.197c0,.889-.318,1.564-.954,2.026-.637,.462-1.567,.693-2.791,.693h-.252Z"/></g><g id="m48-data-storage"><g><rect class="cls-6" x="705.107" y="240.851" width="105.946" height="105.946"/><path class="cls-2" d="M758.08,257.405c-14.234,0-25.383,5.489-25.383,12.495v45.569c0,8.284,11.149,14.774,25.383,14.774s25.383-6.49,25.383-14.774v-45.569c0-7.006-11.149-12.495-25.383-12.495Zm0,2.207c12.562,0,23.176,4.712,23.176,10.288s-10.614,10.289-23.176,10.289-23.176-4.712-23.176-10.289,10.614-10.288,23.176-10.288Zm23.176,55.857c0,6.929-10.397,12.566-23.176,12.566s-23.176-5.638-23.176-12.566v-9.848c3.922,5.155,12.705,8.674,23.176,8.674s19.254-3.519,23.176-8.674v9.848Zm0-17.089v1.139c0,6.93-10.397,12.568-23.176,12.568s-23.176-5.638-23.176-12.568v-9.847c3.922,5.155,12.705,8.673,23.176,8.673s19.254-3.518,23.176-8.673v8.708Zm0-14.809c0,6.929-10.397,12.566-23.176,12.566s-23.176-5.638-23.176-12.566v-8.511c3.922,4.361,12.705,7.336,23.176,7.336s19.254-2.976,23.176-7.336v8.511Z"/></g></g><g><path class="cls-3" d="M720.979,360.479l4.952-12.604h1.837l4.97,12.604h-2.233l-1.063-2.827h-5.312l-1.045,2.827h-2.106Zm3.8-4.538h4.033l-2.017-5.42-2.017,5.42Z"/><path class="cls-3" d="M734.593,360.479v-12.604h2.071v12.604h-2.071Z"/><path class="cls-3" d="M744.442,360.479v-12.604h2.485l4.231,9.85,4.231-9.85h2.413v12.604h-1.981v-9.184l-3.961,9.184h-1.477l-3.979-9.237v9.237h-1.963Z"/><path class="cls-3" d="M764.573,360.714c-.828,0-1.569-.178-2.224-.531-.654-.354-1.174-.874-1.558-1.558-.385-.685-.576-1.507-.576-2.467v-.576c0-.973,.191-1.798,.576-2.477,.384-.678,.903-1.197,1.558-1.558,.654-.359,1.396-.54,2.224-.54h.162c.828,0,1.572,.181,2.232,.54,.66,.36,1.18,.88,1.558,1.558,.378,.679,.567,1.498,.567,2.458v.595c0,.96-.189,1.782-.567,2.467-.378,.684-.897,1.203-1.558,1.558-.66,.354-1.404,.531-2.232,.531h-.162Zm0-1.693h.144c.685,0,1.255-.233,1.711-.702,.456-.468,.685-1.176,.685-2.124v-.667c0-.948-.229-1.653-.685-2.115s-1.026-.693-1.711-.693h-.144c-.673,0-1.236,.231-1.692,.693-.457,.462-.685,1.167-.685,2.115v.667c0,.948,.228,1.656,.685,2.124,.456,.469,1.02,.702,1.692,.702Z"/><path class="cls-3" d="M774.621,360.714c-.756,0-1.429-.175-2.017-.522-.589-.348-1.051-.861-1.387-1.54-.336-.678-.504-1.509-.504-2.493v-.612c0-.973,.168-1.795,.504-2.467,.336-.673,.798-1.186,1.387-1.54,.588-.354,1.261-.531,2.017-.531h.126c.612,0,1.155,.117,1.63,.352,.474,.233,.861,.567,1.161,.999v-5.023h1.98v13.145h-1.746v-1.368c-.301,.504-.702,.897-1.207,1.179-.504,.282-1.11,.424-1.818,.424h-.126Zm.45-1.693h.144c.408,0,.79-.099,1.144-.297,.354-.198,.643-.507,.864-.927,.223-.421,.333-.973,.333-1.657v-.558c0-.673-.11-1.219-.333-1.639-.222-.42-.51-.729-.864-.928-.354-.198-.735-.297-1.144-.297h-.144c-.685,0-1.252,.229-1.702,.685s-.675,1.17-.675,2.143v.63c0,.973,.225,1.69,.675,2.152s1.018,.692,1.702,.692Z"/><path class="cls-3" d="M785.894,360.714c-1.345,0-2.393-.394-3.143-1.18s-1.125-1.905-1.125-3.358v-.594c0-1.429,.384-2.548,1.152-3.358,.768-.811,1.807-1.216,3.115-1.216h.162c1.248,0,2.235,.391,2.962,1.171,.726,.78,1.089,1.83,1.089,3.151v1.098h-6.536c.036,.9,.255,1.573,.657,2.017,.402,.444,.957,.667,1.666,.667h.27c.54,0,.987-.093,1.342-.279,.354-.187,.64-.465,.855-.838l1.44,.937c-.324,.553-.799,.988-1.423,1.306-.624,.318-1.362,.478-2.215,.478h-.27Zm-2.305-5.672h4.591v-.127c0-.744-.188-1.311-.566-1.701-.379-.39-.903-.585-1.576-.585h-.144c-.66,0-1.191,.204-1.594,.612s-.64,1.008-.711,1.801Z"/><path class="cls-3" d="M792.159,360.479v-13.145h1.98v13.145h-1.98Z"/><path class="cls-3" d="M713.651,382.087v-12.604h4.52c1.465,0,2.611,.324,3.439,.973,.828,.647,1.242,1.561,1.242,2.736v.378c0,.853-.219,1.57-.657,2.152s-1.06,1.006-1.863,1.27l2.881,5.096h-2.269l-2.665-4.79h-2.557v4.79h-2.071Zm2.071-6.555h2.412c.816,0,1.462-.152,1.936-.459,.475-.306,.712-.789,.712-1.449v-.469c0-.647-.237-1.125-.712-1.431-.474-.307-1.119-.46-1.936-.46h-2.412v4.268Z"/><path class="cls-3" d="M728.651,382.321c-1.345,0-2.393-.394-3.143-1.18s-1.125-1.905-1.125-3.358v-.594c0-1.429,.384-2.548,1.152-3.358,.768-.811,1.807-1.216,3.115-1.216h.162c1.248,0,2.235,.391,2.962,1.171,.726,.78,1.089,1.83,1.089,3.151v1.098h-6.536c.036,.9,.255,1.573,.657,2.017,.402,.444,.957,.667,1.666,.667h.27c.54,0,.987-.093,1.342-.279,.354-.187,.64-.465,.855-.838l1.44,.937c-.324,.553-.799,.988-1.423,1.306-.624,.318-1.362,.478-2.215,.478h-.27Zm-2.305-5.672h4.591v-.127c0-.744-.188-1.311-.566-1.701-.379-.39-.903-.585-1.576-.585h-.144c-.66,0-1.191,.204-1.594,.612s-.64,1.008-.711,1.801Z"/><path class="cls-3" d="M734.917,385.688v-12.821h1.747v1.351c.288-.504,.687-.896,1.197-1.179,.51-.282,1.119-.424,1.827-.424h.108c.756,0,1.429,.178,2.017,.531,.588,.354,1.054,.871,1.396,1.549,.342,.679,.514,1.51,.514,2.494v.594c0,.973-.172,1.798-.514,2.476-.342,.679-.808,1.192-1.396,1.54s-1.261,.522-2.017,.522h-.108c-.612,0-1.155-.114-1.629-.343-.475-.228-.862-.552-1.162-.972v4.682h-1.98Zm4.285-5.061h.145c.685,0,1.254-.228,1.711-.684,.456-.456,.684-1.177,.684-2.161v-.612c0-.984-.228-1.704-.684-2.16-.457-.456-1.026-.685-1.711-.685h-.145c-.408,0-.789,.096-1.143,.288-.354,.192-.643,.498-.864,.918-.223,.421-.334,.973-.334,1.657v.558c0,.673,.111,1.222,.334,1.647,.222,.427,.513,.738,.873,.937s.738,.297,1.134,.297Z"/><path class="cls-3" d="M749.683,382.321c-.828,0-1.569-.178-2.224-.531-.654-.354-1.174-.874-1.558-1.558-.385-.685-.576-1.507-.576-2.467v-.576c0-.973,.191-1.798,.576-2.477,.384-.678,.903-1.197,1.558-1.558,.654-.359,1.396-.54,2.224-.54h.162c.828,0,1.572,.181,2.232,.54,.66,.36,1.18,.88,1.558,1.558,.378,.679,.567,1.498,.567,2.458v.595c0,.96-.189,1.782-.567,2.467-.378,.684-.897,1.203-1.558,1.558-.66,.354-1.404,.531-2.232,.531h-.162Zm0-1.693h.144c.685,0,1.255-.233,1.711-.702,.456-.468,.685-1.176,.685-2.124v-.667c0-.948-.229-1.653-.685-2.115s-1.026-.693-1.711-.693h-.144c-.673,0-1.236,.231-1.692,.693-.457,.462-.685,1.167-.685,2.115v.667c0,.948,.228,1.656,.685,2.124,.456,.469,1.02,.702,1.692,.702Z"/><path class="cls-3" d="M759.657,382.321c-2.089,0-3.421-.702-3.997-2.107l1.549-.792c.203,.433,.501,.75,.891,.954,.391,.204,.915,.307,1.576,.307h.216c1.236,0,1.854-.366,1.854-1.099v-.072c0-.624-.391-.99-1.17-1.099l-1.963-.27c-.853-.12-1.51-.399-1.972-.837-.463-.438-.693-1.023-.693-1.756v-.198c0-.828,.324-1.491,.973-1.99,.647-.498,1.512-.747,2.593-.747h.252c.888,0,1.65,.181,2.287,.54,.636,.36,1.086,.858,1.35,1.495l-1.584,.702c-.324-.732-1.015-1.099-2.071-1.099h-.216c-.528,0-.939,.097-1.233,.288-.294,.192-.441,.456-.441,.792v.091c0,.276,.087,.495,.262,.657,.174,.162,.465,.272,.873,.333l1.999,.27c.852,.12,1.509,.418,1.972,.892,.462,.475,.693,1.084,.693,1.828v.197c0,.889-.318,1.564-.955,2.026-.636,.462-1.566,.693-2.791,.693h-.252Z"/><path class="cls-3" d="M765.546,371.229v-2.07h2.053v2.07h-2.053Zm.036,10.858v-9.22h1.98v9.22h-1.98Z"/><path class="cls-3" d="M774.225,382.177c-1.164,0-1.992-.261-2.484-.783s-.738-1.27-.738-2.242v-4.646h-1.944v-1.639h1.944v-2.719h1.98v2.719h3.007l-.233,1.639h-2.773v4.556c0,.517,.12,.886,.36,1.107,.24,.223,.601,.333,1.08,.333h1.566v1.675h-1.765Z"/><path class="cls-3" d="M781.806,382.321c-.828,0-1.569-.178-2.224-.531-.654-.354-1.174-.874-1.558-1.558-.385-.685-.576-1.507-.576-2.467v-.576c0-.973,.191-1.798,.576-2.477,.384-.678,.903-1.197,1.558-1.558,.654-.359,1.396-.54,2.224-.54h.162c.828,0,1.572,.181,2.232,.54,.66,.36,1.18,.88,1.558,1.558,.378,.679,.567,1.498,.567,2.458v.595c0,.96-.189,1.782-.567,2.467-.378,.684-.897,1.203-1.558,1.558-.66,.354-1.404,.531-2.232,.531h-.162Zm0-1.693h.144c.685,0,1.255-.233,1.711-.702,.456-.468,.685-1.176,.685-2.124v-.667c0-.948-.229-1.653-.685-2.115s-1.026-.693-1.711-.693h-.144c-.673,0-1.236,.231-1.692,.693-.457,.462-.685,1.167-.685,2.115v.667c0,.948,.228,1.656,.685,2.124,.456,.469,1.02,.702,1.692,.702Z"/><path class="cls-3" d="M788.449,382.087v-9.22h1.747v1.747c.228-.564,.549-1.015,.963-1.351s.993-.504,1.737-.504h.937v1.836h-.918c-.433,0-.838,.097-1.216,.289-.378,.191-.684,.495-.918,.909s-.352,.963-.352,1.647v4.646h-1.98Z"/><path class="cls-3" d="M795.832,385.688v-1.675h.576c.54,0,.951-.105,1.233-.315s.525-.615,.729-1.215l.144-.396-3.619-9.22h2.125l2.521,7.095,2.323-7.095h1.999l-3.493,9.58c-.313,.876-.634,1.549-.964,2.017s-.721,.789-1.17,.963c-.45,.174-1.024,.262-1.72,.262h-.685Z"/></g></g><g><path class="cls-2" d="M382.401,46.495V26.688h7.555c1.962,0,3.617,.377,4.966,1.132,1.348,.754,2.376,1.825,3.084,3.211,.708,1.387,1.061,3.033,1.061,4.938v1.188c0,2.905-.788,5.188-2.363,6.848-1.575,1.66-3.825,2.49-6.749,2.49h-7.555Zm3.254-2.801h4.244c1.905,0,3.368-.538,4.386-1.613s1.528-2.688,1.528-4.839v-1.33c0-2.094-.509-3.688-1.528-4.782-1.019-1.094-2.481-1.641-4.386-1.641h-4.244v14.205Z"/><path class="cls-2" d="M406.537,46.863c-1.547,0-2.745-.382-3.593-1.146-.849-.764-1.273-1.834-1.273-3.211,0-1.188,.372-2.16,1.118-2.915,.745-.754,1.834-1.226,3.268-1.415l5.122-.679v-.113c0-2.15-.962-3.226-2.886-3.226h-.311c-.812,0-1.486,.146-2.023,.438s-.976,.788-1.315,1.485l-2.405-1.245c.434-1,1.146-1.787,2.136-2.362,.99-.575,2.193-.863,3.608-.863h.424c1.924,0,3.386,.486,4.386,1.458s1.5,2.391,1.5,4.258v9.168h-2.745v-2.207c-.435,.792-1.075,1.419-1.924,1.882-.849,.462-1.811,.693-2.886,.693h-.198Zm4.641-7.187l-3.848,.566c-.981,.132-1.665,.349-2.051,.651-.387,.302-.58,.773-.58,1.415s.221,1.146,.665,1.514c.443,.368,1.071,.552,1.882,.552h.283c1.113,0,1.999-.344,2.66-1.033,.66-.688,.99-1.608,.99-2.759v-.905Z"/><path class="cls-2" d="M424.278,46.637c-1.829,0-3.13-.411-3.904-1.231-.774-.821-1.16-1.995-1.16-3.523v-7.3h-3.056v-2.575h3.056v-4.272h3.112v4.272h4.725l-.367,2.575h-4.357v7.159c0,.812,.188,1.392,.566,1.74,.377,.35,.942,.523,1.698,.523h2.46v2.632h-2.773Z"/><path class="cls-2" d="M434.097,46.863c-1.547,0-2.745-.382-3.594-1.146-.849-.764-1.273-1.834-1.273-3.211,0-1.188,.372-2.16,1.118-2.915,.744-.754,1.834-1.226,3.268-1.415l5.122-.679v-.113c0-2.15-.963-3.226-2.887-3.226h-.312c-.811,0-1.485,.146-2.022,.438-.538,.292-.977,.788-1.316,1.485l-2.405-1.245c.435-1,1.146-1.787,2.137-2.362,.99-.575,2.193-.863,3.607-.863h.425c1.924,0,3.386,.486,4.386,1.458s1.5,2.391,1.5,4.258v9.168h-2.745v-2.207c-.434,.792-1.075,1.419-1.924,1.882-.849,.462-1.811,.693-2.886,.693h-.198Zm4.641-7.187l-3.849,.566c-.981,.132-1.665,.349-2.052,.651s-.58,.773-.58,1.415,.222,1.146,.665,1.514c.443,.368,1.07,.552,1.882,.552h.283c1.112,0,1.999-.344,2.66-1.033,.659-.688,.99-1.608,.99-2.759v-.905Z"/><path class="cls-2" d="M461.289,46.863c-2.849,0-5.022-.849-6.522-2.546s-2.249-4.084-2.249-7.159v-1.188c0-1.98,.349-3.692,1.047-5.136,.697-1.443,1.702-2.556,3.014-3.339,1.311-.782,2.881-1.174,4.711-1.174h.283c1.904,0,3.499,.43,4.781,1.288,1.283,.859,2.188,2.07,2.717,3.636l-2.999,1.047c-.321-1.056-.873-1.844-1.655-2.363-.783-.519-1.731-.778-2.844-.778h-.255c-1.736,0-3.094,.576-4.075,1.726-.98,1.151-1.471,2.83-1.471,5.037v1.33c0,2.264,.476,3.961,1.429,5.093,.952,1.132,2.324,1.698,4.117,1.698h.255c1.15,0,2.131-.254,2.942-.764,.811-.509,1.377-1.273,1.698-2.292l2.942,1.132c-.548,1.509-1.477,2.679-2.787,3.509-1.312,.83-2.91,1.245-4.796,1.245h-.283Z"/><path class="cls-2" d="M478.182,46.863c-2.113,0-3.759-.618-4.938-1.853-1.18-1.235-1.769-2.995-1.769-5.277v-.934c0-2.245,.604-4.004,1.811-5.277s2.839-1.91,4.896-1.91h.255c1.962,0,3.513,.613,4.654,1.839,1.142,1.227,1.712,2.877,1.712,4.952v1.726h-10.271c.057,1.415,.4,2.472,1.033,3.169,.632,.698,1.504,1.047,2.617,1.047h.425c.849,0,1.551-.146,2.107-.438s1.005-.731,1.345-1.316l2.264,1.471c-.51,.868-1.255,1.552-2.235,2.052-.981,.5-2.142,.75-3.48,.75h-.425Zm-3.622-8.913h7.216v-.198c0-1.169-.297-2.061-.892-2.674-.594-.613-1.42-.919-2.476-.919h-.227c-1.038,0-1.872,.321-2.504,.962-.633,.642-1.005,1.584-1.118,2.83Z"/><path class="cls-2" d="M488.028,46.495v-14.488h2.745v2.179c.452-.792,1.07-1.419,1.854-1.882,.782-.462,1.712-.693,2.787-.693h.282c1.642,0,2.952,.509,3.934,1.528,.98,1.019,1.472,2.49,1.472,4.415v8.941h-3.113v-8.517c0-1.188-.254-2.098-.764-2.73-.509-.632-1.283-.948-2.32-.948h-.198c-.604,0-1.179,.151-1.726,.453-.548,.302-.99,.764-1.33,1.386s-.51,1.415-.51,2.377v7.979h-3.112Z"/><path class="cls-2" d="M511.287,46.637c-1.829,0-3.131-.411-3.904-1.231-.773-.821-1.16-1.995-1.16-3.523v-7.3h-3.056v-2.575h3.056v-4.272h3.112v4.272h4.726l-.368,2.575h-4.357v7.159c0,.812,.188,1.392,.566,1.74,.377,.35,.942,.523,1.697,.523h2.462v2.632h-2.773Z"/><path class="cls-2" d="M523.059,46.863c-2.113,0-3.759-.618-4.938-1.853-1.18-1.235-1.769-2.995-1.769-5.277v-.934c0-2.245,.604-4.004,1.811-5.277s2.839-1.91,4.896-1.91h.255c1.962,0,3.513,.613,4.654,1.839,1.142,1.227,1.712,2.877,1.712,4.952v1.726h-10.271c.057,1.415,.4,2.472,1.033,3.169,.632,.698,1.504,1.047,2.617,1.047h.425c.849,0,1.551-.146,2.107-.438s1.005-.731,1.345-1.316l2.264,1.471c-.51,.868-1.255,1.552-2.235,2.052-.981,.5-2.142,.75-3.48,.75h-.425Zm-3.622-8.913h7.216v-.198c0-1.169-.297-2.061-.892-2.674-.594-.613-1.42-.919-2.476-.919h-.227c-1.038,0-1.872,.321-2.504,.962-.633,.642-1.005,1.584-1.118,2.83Z"/><path class="cls-2" d="M532.905,46.495v-14.488h2.745v2.745c.357-.887,.863-1.594,1.514-2.123,.65-.528,1.561-.792,2.73-.792h1.472v2.886h-1.443c-.679,0-1.315,.151-1.91,.453-.594,.302-1.075,.778-1.443,1.429-.367,.651-.552,1.514-.552,2.589v7.3h-3.112Z"/><path class="cls-2" d="M559.136,50.824V25.839h2.942v24.985h-2.942Z"/><path class="cls-2" d="M589.355,46.863c-2.849,0-5.022-.849-6.522-2.546s-2.249-4.084-2.249-7.159v-1.188c0-1.98,.349-3.692,1.047-5.136,.697-1.443,1.702-2.556,3.014-3.339,1.311-.782,2.881-1.174,4.711-1.174h.283c1.904,0,3.499,.43,4.781,1.288,1.283,.859,2.188,2.07,2.717,3.636l-2.999,1.047c-.321-1.056-.873-1.844-1.655-2.363-.783-.519-1.731-.778-2.844-.778h-.255c-1.736,0-3.094,.576-4.075,1.726-.98,1.151-1.471,2.83-1.471,5.037v1.33c0,2.264,.476,3.961,1.429,5.093,.952,1.132,2.324,1.698,4.117,1.698h.255c1.15,0,2.131-.254,2.942-.764,.811-.509,1.377-1.273,1.698-2.292l2.942,1.132c-.548,1.509-1.477,2.679-2.787,3.509-1.312,.83-2.91,1.245-4.796,1.245h-.283Z"/><path class="cls-2" d="M600.334,46.495V25.839h3.112v20.656h-3.112Z"/><path class="cls-2" d="M613.604,46.863c-1.302,0-2.467-.278-3.495-.834s-1.844-1.373-2.447-2.448-.905-2.367-.905-3.876v-.905c0-1.528,.302-2.825,.905-3.891,.604-1.065,1.419-1.881,2.447-2.447s2.193-.849,3.495-.849h.255c1.302,0,2.471,.283,3.509,.849,1.037,.566,1.853,1.382,2.447,2.447,.594,1.066,.892,2.354,.892,3.863v.934c0,1.509-.298,2.801-.892,3.876-.595,1.075-1.41,1.892-2.447,2.448-1.038,.556-2.207,.834-3.509,.834h-.255Zm0-2.66h.227c1.075,0,1.971-.368,2.688-1.104s1.075-1.849,1.075-3.339v-1.047c0-1.49-.358-2.599-1.075-3.325-.717-.726-1.612-1.089-2.688-1.089h-.227c-1.057,0-1.943,.364-2.66,1.089-.717,.727-1.075,1.835-1.075,3.325v1.047c0,1.49,.358,2.603,1.075,3.339s1.604,1.104,2.66,1.104Z"/><path class="cls-2" d="M629.111,46.863c-1.604,0-2.882-.504-3.834-1.514-.953-1.009-1.43-2.476-1.43-4.4v-8.942h3.113v8.489c0,1.207,.24,2.127,.721,2.759,.481,.632,1.212,.948,2.193,.948h.198c.584,0,1.136-.151,1.655-.453,.519-.302,.943-.769,1.273-1.401,.33-.632,.495-1.419,.495-2.363v-7.979h3.112v14.488h-2.772v-2.15c-.435,.773-1.028,1.386-1.783,1.839-.755,.453-1.65,.679-2.688,.679h-.255Z"/><path class="cls-2" d="M646.06,46.863c-1.188,0-2.245-.273-3.169-.82s-1.65-1.354-2.179-2.419c-.528-1.065-.792-2.372-.792-3.919v-.962c0-1.528,.264-2.82,.792-3.877,.528-1.056,1.255-1.862,2.179-2.419,.924-.556,1.981-.835,3.169-.835h.198c.962,0,1.815,.184,2.562,.552,.744,.368,1.353,.892,1.824,1.57v-7.895h3.113v20.656h-2.745v-2.15c-.472,.792-1.104,1.41-1.896,1.854-.792,.443-1.745,.665-2.858,.665h-.198Zm.708-2.66h.227c.641,0,1.24-.156,1.797-.467,.556-.312,1.009-.797,1.357-1.458,.35-.66,.523-1.528,.523-2.603v-.877c0-1.057-.174-1.915-.523-2.575-.349-.66-.802-1.146-1.357-1.457-.557-.312-1.156-.467-1.797-.467h-.227c-1.075,0-1.967,.359-2.674,1.076-.708,.717-1.062,1.839-1.062,3.367v.99c0,1.528,.354,2.655,1.062,3.381,.707,.727,1.599,1.089,2.674,1.089Z"/></g><g id="m48-monitor-development"><path class="cls-2" d="M113.255,172.689v-37.09H53.589v37.09h23.942l-1.296,4.838h-4.908v1.613h24.187v-1.613h-4.908l-1.297-4.838h23.945Zm-58.053-35.477h56.441v33.864H55.202v-33.864Zm33.735,40.315h-11.032l1.296-4.838h8.44l1.296,4.838Zm-32.123-8.063h53.216v-30.639H56.814v30.639Zm1.613-29.027h49.99v27.414H58.427v-27.414Z"/></g><g id="m48-monitor-development-2"><path class="cls-2" d="M113.255,252.995v-37.09H53.589v37.09h23.942l-1.296,4.838h-4.908v1.613h24.187v-1.613h-4.908l-1.297-4.838h23.945Zm-58.053-35.477h56.441v33.864H55.202v-33.864Zm33.735,40.315h-11.032l1.296-4.838h8.44l1.296,4.838Zm-32.123-8.063h53.216v-30.639H56.814v30.639Zm1.613-29.027h49.99v27.414H58.427v-27.414Z"/></g><g id="m48-smart-phone"><path class="cls-2" d="M69.768,298.494v41.555h27.307v-41.555h-27.307Zm17.078,1.187l-.318,1.187h-6.22l-.339-1.187h6.878Zm9.042,39.18h-24.933v-39.18h7.778l.679,2.375h8.027l.636-2.375h7.813v39.18Zm-15.318-4.749l-.479,1.786,.508,1.776h5.652l.479-1.786-.508-1.776h-5.652Zm4.771,2.375h-3.846l-.171-.599,.158-.588h3.846l.171,.599-.158,.588Zm-13.198-3.562h22.558v-29.682h-22.558v29.682Zm1.187-28.495h20.184v27.307h-20.184v-27.307Z"/></g><g><rect class="cls-2" x="65.039" y="372.631" width="36.766" height=".071"/><path class="cls-2" d="M65.039,372.702v48.042h36.766v-48.042h-36.766Zm22.348,1.304l-.368,1.375h-7.202l-.393-1.375h7.964Zm13.043,45.363h-34.016v-45.363h11.58l.786,2.749h9.294l.736-2.749h11.62v45.363Z"/><path class="cls-2" d="M80.12,413.87l-.554,2.068,.589,2.056h6.544l.554-2.068-.589-2.056h-6.544Zm5.523,2.749h-4.453l-.198-.693,.183-.681h4.453l.198,.693-.183,.681Z"/><path class="cls-2" d="M67.789,412.496h31.267v-34.366h-31.267v34.366Zm1.375-32.992h28.518v31.617h-28.518v-31.617Z"/></g><g><line class="cls-5" x1="127.485" y1="325.128" x2="216.529" y2="373.251"/><polygon class="cls-8" points="126.006 332.037 118.899 320.488 132.455 320.105 126.006 332.037"/></g><g><line class="cls-5" x1="128.333" y1="396.597" x2="216.529" y2="373.251"/><polygon class="cls-8" points="131.987 402.645 118.899 399.094 128.516 389.533 131.987 402.645"/></g><polygon class="cls-8" points="214.624 377.559 222.035 372.962 214.348 368.842 214.624 377.559"/><g><line class="cls-5" x1="126.998" y1="162.308" x2="216.529" y2="222.498"/><polygon class="cls-8" points="124.861 169.043 118.899 156.863 132.428 157.787 124.861 169.043"/></g><g><line class="cls-5" x1="128.573" y1="234.184" x2="216.529" y2="222.498"/><polygon class="cls-8" points="131.433 240.645 118.899 235.47 129.647 227.201 131.433 240.645"/></g><polygon class="cls-8" points="214.624 226.807 222.035 222.209 214.348 218.089 214.624 226.807"/></svg>